G75*
%MOIN*%
%OFA0B0*%
%FSLAX24Y24*%
%IPPOS*%
%LPD*%
%AMOC8*
5,1,8,0,0,1.08239X$1,22.5*
%
%ADD10C,0.0600*%
%ADD11C,0.0780*%
%ADD12OC8,0.0780*%
%ADD13C,0.0940*%
%ADD14C,0.0740*%
%ADD15C,0.0890*%
%ADD16R,0.0355X0.0355*%
%ADD17R,0.0473X0.0434*%
%ADD18C,0.1090*%
%ADD19C,0.1090*%
%ADD20R,0.0434X0.0473*%
D10*
X017920Y007700D02*
X018480Y007700D01*
X018480Y008700D02*
X017920Y008700D01*
X017920Y009700D02*
X018480Y009700D01*
X018480Y010700D02*
X017920Y010700D01*
X017920Y011700D02*
X018480Y011700D01*
X018480Y012700D02*
X017920Y012700D01*
X017920Y013700D02*
X018480Y013700D01*
X018480Y014700D02*
X017920Y014700D01*
X017920Y015700D02*
X018480Y015700D01*
X018480Y016700D02*
X017920Y016700D01*
X017920Y017700D02*
X018480Y017700D01*
X018480Y018700D02*
X017920Y018700D01*
X017920Y019700D02*
X018480Y019700D01*
X018480Y020700D02*
X017920Y020700D01*
X020920Y020700D02*
X021480Y020700D01*
X021480Y019700D02*
X020920Y019700D01*
X020920Y018700D02*
X021480Y018700D01*
X021480Y017700D02*
X020920Y017700D01*
X020920Y016700D02*
X021480Y016700D01*
X021480Y015700D02*
X020920Y015700D01*
X020920Y014700D02*
X021480Y014700D01*
X021480Y013700D02*
X020920Y013700D01*
X020920Y012700D02*
X021480Y012700D01*
X021480Y011700D02*
X020920Y011700D01*
X020920Y010700D02*
X021480Y010700D01*
X021480Y009700D02*
X020920Y009700D01*
X020920Y008700D02*
X021480Y008700D01*
X021480Y007700D02*
X020920Y007700D01*
D11*
X015700Y014700D03*
X015700Y015700D03*
X015700Y016700D03*
X024700Y016700D03*
X024700Y015700D03*
X024700Y017700D03*
X024700Y018700D03*
X024700Y019700D03*
X024700Y020700D03*
D12*
X015700Y010200D03*
X014700Y010200D03*
X014700Y009200D03*
X015700Y009200D03*
X015700Y008200D03*
X014700Y008200D03*
X014700Y005700D03*
X015700Y005700D03*
X015700Y004700D03*
X014700Y004700D03*
X014700Y003700D03*
X015700Y003700D03*
X015700Y002700D03*
X014700Y002700D03*
D13*
X010950Y008575D03*
X004950Y008575D03*
X004950Y013825D03*
X010950Y013825D03*
X011700Y020800D03*
X027700Y001600D03*
D14*
X006700Y006200D03*
X009200Y006200D03*
X009200Y008200D03*
X006700Y008200D03*
X011950Y010200D03*
X011950Y011200D03*
X011950Y012200D03*
X008950Y015200D03*
X007950Y015200D03*
X006950Y015200D03*
D15*
X025146Y012255D03*
X026538Y013647D03*
X029035Y014056D03*
X030427Y012664D03*
X032924Y012255D03*
X034316Y013647D03*
X033907Y016144D03*
X032515Y017536D03*
X030018Y010167D03*
X028626Y008775D03*
X032515Y009758D03*
X033907Y008366D03*
X036404Y008775D03*
X037796Y010167D03*
X029035Y006278D03*
X030427Y004886D03*
D16*
X023450Y007655D03*
X023450Y008245D03*
X022450Y008245D03*
X022450Y007655D03*
D17*
X022450Y009115D03*
X022450Y009785D03*
X023450Y009785D03*
X023450Y009115D03*
X013200Y016115D03*
X013200Y016785D03*
X022950Y020115D03*
X022950Y020785D03*
D18*
X027700Y018325D02*
X027700Y017275D01*
X011700Y017275D02*
X011700Y018325D01*
X011700Y005125D02*
X011700Y004075D01*
X027700Y004075D02*
X027700Y005125D01*
D19*
X011700Y001600D03*
X027700Y020800D03*
D20*
X022950Y014285D03*
X022950Y013615D03*
M02*
