%
M48
M72
T01C0.0320
T02C0.0350
T03C0.0354
T04C0.0400
T05C0.0472
T06C0.0550
T07C0.0600
T08C0.0700
%
T01
X18200Y7700
X18200Y8700
X18200Y9700
X18200Y10700
X18200Y11700
X18200Y12700
X18200Y13700
X18200Y14700
X18200Y15700
X18200Y16700
X18200Y17700
X18200Y18700
X18200Y19700
X18200Y20700
X21200Y20700
X21200Y19700
X21200Y18700
X21200Y17700
X21200Y16700
X21200Y15700
X21200Y14700
X21200Y13700
X21200Y12700
X21200Y11700
X21200Y10700
X21200Y9700
X21200Y8700
X21200Y7700
T02
X11950Y10200
X11950Y11200
X11950Y12200
X8950Y15200
X7950Y15200
X6950Y15200
T03
X6700Y6200
X9200Y6200
X9200Y8200
X6700Y8200
T04
X14700Y8200
X15700Y8200
X15700Y9200
X14700Y9200
X14700Y10200
X15700Y10200
X15700Y5700
X14700Y5700
X14700Y4700
X15700Y4700
X15700Y3700
X14700Y3700
X14700Y2700
X15700Y2700
X15700Y14700
X15700Y15700
X15700Y16700
X24700Y16700
X24700Y15700
X24700Y17700
X24700Y18700
X24700Y19700
X24700Y20700
T05
X32515Y17536
X33907Y16144
X34316Y13647
X32924Y12255
X30427Y12664
X29035Y14056
X26538Y13647
X25146Y12255
X30018Y10167
X28626Y8775
X32515Y9758
X33907Y8366
X36404Y8775
X37796Y10167
X29035Y6278
X30427Y4886
T06
X10950Y8575
X4950Y8575
X4950Y13825
X10950Y13825
T07
X11700Y20800
X27700Y1600
T08
X27700Y4600
X11700Y4600
X11700Y1600
X11700Y17800
X27700Y17800
X27700Y20800
M30
