G75*
%MOIN*%
%OFA0B0*%
%FSLAX24Y24*%
%IPPOS*%
%LPD*%
%AMOC8*
5,1,8,0,0,1.08239X$1,22.5*
%
%ADD10C,0.0100*%
%ADD11C,0.0040*%
%ADD12C,0.0080*%
%ADD13C,0.0050*%
D10*
X011200Y000200D02*
X028200Y000200D01*
X028600Y006700D02*
X026200Y006700D01*
X026200Y013200D01*
X026200Y014100D02*
X026200Y015700D01*
X027200Y015700D01*
X027200Y016200D01*
X028200Y016200D01*
X028200Y015700D01*
X027200Y015700D01*
X028200Y015700D02*
X029200Y015700D01*
X029200Y014600D01*
X029200Y013500D02*
X029200Y006900D01*
X039200Y011200D02*
X039197Y011466D01*
X039187Y011731D01*
X039171Y011997D01*
X039149Y012262D01*
X039120Y012526D01*
X039085Y012789D01*
X039043Y013052D01*
X038995Y013313D01*
X038941Y013574D01*
X038880Y013832D01*
X038814Y014090D01*
X038741Y014345D01*
X038662Y014599D01*
X038576Y014851D01*
X038485Y015101D01*
X038388Y015348D01*
X038285Y015593D01*
X038176Y015835D01*
X038061Y016075D01*
X037940Y016312D01*
X037814Y016546D01*
X037682Y016777D01*
X037544Y017004D01*
X037401Y017228D01*
X037253Y017449D01*
X037099Y017666D01*
X036940Y017879D01*
X036776Y018088D01*
X036607Y018293D01*
X036434Y018494D01*
X036255Y018691D01*
X036072Y018884D01*
X035884Y019072D01*
X035691Y019255D01*
X035494Y019434D01*
X035293Y019607D01*
X035088Y019776D01*
X034879Y019940D01*
X034666Y020099D01*
X034449Y020253D01*
X034228Y020401D01*
X034004Y020544D01*
X033777Y020682D01*
X033546Y020814D01*
X033312Y020940D01*
X033075Y021061D01*
X032835Y021176D01*
X032593Y021285D01*
X032348Y021388D01*
X032101Y021485D01*
X031851Y021576D01*
X031599Y021662D01*
X031345Y021741D01*
X031090Y021814D01*
X030832Y021880D01*
X030574Y021941D01*
X030313Y021995D01*
X030052Y022043D01*
X029789Y022085D01*
X029526Y022120D01*
X029262Y022149D01*
X028997Y022171D01*
X028731Y022187D01*
X028466Y022197D01*
X028200Y022200D01*
X011200Y022200D01*
X010200Y015700D02*
X010200Y006700D01*
X011200Y006700D01*
X011200Y006200D01*
X012200Y006200D01*
X012200Y006700D01*
X011200Y006700D01*
X012200Y006700D02*
X013200Y006700D01*
X013200Y015700D01*
X010200Y015700D01*
X000200Y011200D02*
X000203Y010934D01*
X000213Y010669D01*
X000229Y010403D01*
X000251Y010138D01*
X000280Y009874D01*
X000315Y009611D01*
X000357Y009348D01*
X000405Y009087D01*
X000459Y008826D01*
X000520Y008568D01*
X000586Y008310D01*
X000659Y008055D01*
X000738Y007801D01*
X000824Y007549D01*
X000915Y007299D01*
X001012Y007052D01*
X001115Y006807D01*
X001224Y006565D01*
X001339Y006325D01*
X001460Y006088D01*
X001586Y005854D01*
X001718Y005623D01*
X001856Y005396D01*
X001999Y005172D01*
X002147Y004951D01*
X002301Y004734D01*
X002460Y004521D01*
X002624Y004312D01*
X002793Y004107D01*
X002966Y003906D01*
X003145Y003709D01*
X003328Y003516D01*
X003516Y003328D01*
X003709Y003145D01*
X003906Y002966D01*
X004107Y002793D01*
X004312Y002624D01*
X004521Y002460D01*
X004734Y002301D01*
X004951Y002147D01*
X005172Y001999D01*
X005396Y001856D01*
X005623Y001718D01*
X005854Y001586D01*
X006088Y001460D01*
X006325Y001339D01*
X006565Y001224D01*
X006807Y001115D01*
X007052Y001012D01*
X007299Y000915D01*
X007549Y000824D01*
X007801Y000738D01*
X008055Y000659D01*
X008310Y000586D01*
X008568Y000520D01*
X008826Y000459D01*
X009087Y000405D01*
X009348Y000357D01*
X009611Y000315D01*
X009874Y000280D01*
X010138Y000251D01*
X010403Y000229D01*
X010669Y000213D01*
X010934Y000203D01*
X011200Y000200D01*
X000200Y011200D02*
X000203Y011466D01*
X000213Y011731D01*
X000229Y011997D01*
X000251Y012262D01*
X000280Y012526D01*
X000315Y012789D01*
X000357Y013052D01*
X000405Y013313D01*
X000459Y013574D01*
X000520Y013832D01*
X000586Y014090D01*
X000659Y014345D01*
X000738Y014599D01*
X000824Y014851D01*
X000915Y015101D01*
X001012Y015348D01*
X001115Y015593D01*
X001224Y015835D01*
X001339Y016075D01*
X001460Y016312D01*
X001586Y016546D01*
X001718Y016777D01*
X001856Y017004D01*
X001999Y017228D01*
X002147Y017449D01*
X002301Y017666D01*
X002460Y017879D01*
X002624Y018088D01*
X002793Y018293D01*
X002966Y018494D01*
X003145Y018691D01*
X003328Y018884D01*
X003516Y019072D01*
X003709Y019255D01*
X003906Y019434D01*
X004107Y019607D01*
X004312Y019776D01*
X004521Y019940D01*
X004734Y020099D01*
X004951Y020253D01*
X005172Y020401D01*
X005396Y020544D01*
X005623Y020682D01*
X005854Y020814D01*
X006088Y020940D01*
X006325Y021061D01*
X006565Y021176D01*
X006807Y021285D01*
X007052Y021388D01*
X007299Y021485D01*
X007549Y021576D01*
X007801Y021662D01*
X008055Y021741D01*
X008310Y021814D01*
X008568Y021880D01*
X008826Y021941D01*
X009087Y021995D01*
X009348Y022043D01*
X009611Y022085D01*
X009874Y022120D01*
X010138Y022149D01*
X010403Y022171D01*
X010669Y022187D01*
X010934Y022197D01*
X011200Y022200D01*
X028200Y000200D02*
X028466Y000203D01*
X028731Y000213D01*
X028997Y000229D01*
X029262Y000251D01*
X029526Y000280D01*
X029789Y000315D01*
X030052Y000357D01*
X030313Y000405D01*
X030574Y000459D01*
X030832Y000520D01*
X031090Y000586D01*
X031345Y000659D01*
X031599Y000738D01*
X031851Y000824D01*
X032101Y000915D01*
X032348Y001012D01*
X032593Y001115D01*
X032835Y001224D01*
X033075Y001339D01*
X033312Y001460D01*
X033546Y001586D01*
X033777Y001718D01*
X034004Y001856D01*
X034228Y001999D01*
X034449Y002147D01*
X034666Y002301D01*
X034879Y002460D01*
X035088Y002624D01*
X035293Y002793D01*
X035494Y002966D01*
X035691Y003145D01*
X035884Y003328D01*
X036072Y003516D01*
X036255Y003709D01*
X036434Y003906D01*
X036607Y004107D01*
X036776Y004312D01*
X036940Y004521D01*
X037099Y004734D01*
X037253Y004951D01*
X037401Y005172D01*
X037544Y005396D01*
X037682Y005623D01*
X037814Y005854D01*
X037940Y006088D01*
X038061Y006325D01*
X038176Y006565D01*
X038285Y006807D01*
X038388Y007052D01*
X038485Y007299D01*
X038576Y007549D01*
X038662Y007801D01*
X038741Y008055D01*
X038814Y008310D01*
X038880Y008568D01*
X038941Y008826D01*
X038995Y009087D01*
X039043Y009348D01*
X039085Y009611D01*
X039120Y009874D01*
X039149Y010138D01*
X039171Y010403D01*
X039187Y010669D01*
X039197Y010934D01*
X039200Y011200D01*
D11*
X030430Y019547D02*
X030353Y019470D01*
X030200Y019470D01*
X030123Y019547D01*
X030123Y019930D01*
X029970Y019930D02*
X029970Y019700D01*
X029816Y019777D01*
X029739Y019777D01*
X029663Y019700D01*
X029663Y019547D01*
X029739Y019470D01*
X029893Y019470D01*
X029970Y019547D01*
X029970Y019930D02*
X029663Y019930D01*
X030430Y019930D02*
X030430Y019547D01*
X020180Y021547D02*
X020103Y021470D01*
X019950Y021470D01*
X019873Y021547D01*
X019873Y021930D01*
X019720Y021777D02*
X019566Y021930D01*
X019566Y021470D01*
X019413Y021470D02*
X019720Y021470D01*
X020180Y021547D02*
X020180Y021930D01*
X009680Y019930D02*
X009680Y019547D01*
X009603Y019470D01*
X009450Y019470D01*
X009373Y019547D01*
X009373Y019930D01*
X009220Y019700D02*
X008913Y019700D01*
X008989Y019470D02*
X008989Y019930D01*
X009220Y019700D01*
D12*
X018500Y021100D02*
X018500Y021200D01*
X019200Y021200D01*
X019202Y021156D01*
X019208Y021113D01*
X019217Y021071D01*
X019230Y021029D01*
X019247Y020989D01*
X019267Y020950D01*
X019290Y020913D01*
X019317Y020879D01*
X019346Y020846D01*
X019379Y020817D01*
X019413Y020790D01*
X019450Y020767D01*
X019489Y020747D01*
X019529Y020730D01*
X019571Y020717D01*
X019613Y020708D01*
X019656Y020702D01*
X019700Y020700D01*
X019744Y020702D01*
X019787Y020708D01*
X019829Y020717D01*
X019871Y020730D01*
X019911Y020747D01*
X019950Y020767D01*
X019987Y020790D01*
X020021Y020817D01*
X020054Y020846D01*
X020083Y020879D01*
X020110Y020913D01*
X020133Y020950D01*
X020153Y020989D01*
X020170Y021029D01*
X020183Y021071D01*
X020192Y021113D01*
X020198Y021156D01*
X020200Y021200D01*
X020900Y021200D01*
X020900Y021100D01*
X020900Y007300D02*
X020900Y007200D01*
X018500Y007200D01*
X018500Y007300D01*
D13*
X012200Y007700D02*
X011200Y007700D01*
X011700Y007200D02*
X011700Y008200D01*
X012200Y015200D02*
X011200Y015200D01*
X027200Y014700D02*
X028200Y014700D01*
X027700Y015200D02*
X027700Y014200D01*
X027200Y007200D02*
X028200Y007200D01*
M02*
