G75*
%MOIN*%
%OFA0B0*%
%FSLAX24Y24*%
%IPPOS*%
%LPD*%
%AMOC8*
5,1,8,0,0,1.08239X$1,22.5*
%
%ADD10C,0.0100*%
%ADD11R,0.0180X0.0009*%
%ADD12R,0.0324X0.0009*%
%ADD13R,0.0414X0.0009*%
%ADD14R,0.0504X0.0009*%
%ADD15R,0.0567X0.0009*%
%ADD16R,0.0621X0.0009*%
%ADD17R,0.0675X0.0009*%
%ADD18R,0.0729X0.0009*%
%ADD19R,0.0774X0.0009*%
%ADD20R,0.0819X0.0009*%
%ADD21R,0.0864X0.0009*%
%ADD22R,0.0900X0.0009*%
%ADD23R,0.0027X0.0009*%
%ADD24R,0.0936X0.0009*%
%ADD25R,0.0045X0.0009*%
%ADD26R,0.0972X0.0009*%
%ADD27R,0.0072X0.0009*%
%ADD28R,0.0999X0.0009*%
%ADD29R,0.0090X0.0009*%
%ADD30R,0.1035X0.0009*%
%ADD31R,0.0108X0.0009*%
%ADD32R,0.1071X0.0009*%
%ADD33R,0.0135X0.0009*%
%ADD34R,0.1098X0.0009*%
%ADD35R,0.0144X0.0009*%
%ADD36R,0.1134X0.0009*%
%ADD37R,0.0144X0.0009*%
%ADD38R,0.1161X0.0009*%
%ADD39R,0.1188X0.0009*%
%ADD40R,0.0144X0.0009*%
%ADD41R,0.1224X0.0009*%
%ADD42R,0.1251X0.0009*%
%ADD43R,0.1278X0.0009*%
%ADD44R,0.1314X0.0009*%
%ADD45R,0.1341X0.0009*%
%ADD46R,0.0531X0.0009*%
%ADD47R,0.0486X0.0009*%
%ADD48R,0.0585X0.0009*%
%ADD49R,0.0459X0.0009*%
%ADD50R,0.0567X0.0009*%
%ADD51R,0.0432X0.0009*%
%ADD52R,0.0549X0.0009*%
%ADD53R,0.0423X0.0009*%
%ADD54R,0.0540X0.0009*%
%ADD55R,0.0405X0.0009*%
%ADD56R,0.0396X0.0009*%
%ADD57R,0.0522X0.0009*%
%ADD58R,0.0144X0.0009*%
%ADD59R,0.0387X0.0009*%
%ADD60R,0.0522X0.0009*%
%ADD61R,0.0378X0.0009*%
%ADD62R,0.0513X0.0009*%
%ADD63R,0.0369X0.0009*%
%ADD64R,0.0360X0.0009*%
%ADD65R,0.0351X0.0009*%
%ADD66R,0.0135X0.0009*%
%ADD67R,0.0351X0.0009*%
%ADD68R,0.0513X0.0009*%
%ADD69R,0.0018X0.0009*%
%ADD70R,0.0333X0.0009*%
%ADD71R,0.0036X0.0009*%
%ADD72R,0.0063X0.0009*%
%ADD73R,0.0081X0.0009*%
%ADD74R,0.0324X0.0009*%
%ADD75R,0.0099X0.0009*%
%ADD76R,0.0315X0.0009*%
%ADD77R,0.0126X0.0009*%
%ADD78R,0.0315X0.0009*%
%ADD79R,0.0306X0.0009*%
%ADD80R,0.0306X0.0009*%
%ADD81R,0.0297X0.0009*%
%ADD82R,0.0288X0.0009*%
%ADD83R,0.0288X0.0009*%
%ADD84R,0.0279X0.0009*%
%ADD85R,0.0279X0.0009*%
%ADD86R,0.0270X0.0009*%
%ADD87R,0.0261X0.0009*%
%ADD88R,0.0153X0.0009*%
%ADD89R,0.0261X0.0009*%
%ADD90R,0.0198X0.0009*%
%ADD91R,0.0225X0.0009*%
%ADD92R,0.0243X0.0009*%
%ADD93R,0.0252X0.0009*%
%ADD94R,0.0252X0.0009*%
%ADD95R,0.0252X0.0009*%
%ADD96R,0.0243X0.0009*%
%ADD97R,0.0252X0.0009*%
%ADD98R,0.0522X0.0009*%
%ADD99R,0.0234X0.0009*%
%ADD100R,0.0234X0.0009*%
%ADD101R,0.0108X0.0009*%
%ADD102R,0.0153X0.0009*%
%ADD103R,0.0171X0.0009*%
%ADD104R,0.0234X0.0009*%
%ADD105R,0.0234X0.0009*%
%ADD106R,0.0216X0.0009*%
%ADD107R,0.0297X0.0009*%
%ADD108R,0.0360X0.0009*%
%ADD109R,0.0207X0.0009*%
%ADD110R,0.0198X0.0009*%
%ADD111R,0.0396X0.0009*%
%ADD112R,0.0522X0.0009*%
%ADD113R,0.0189X0.0009*%
%ADD114R,0.0009X0.0009*%
%ADD115R,0.0054X0.0009*%
%ADD116R,0.0180X0.0009*%
%ADD117R,0.0279X0.0009*%
%ADD118R,0.0081X0.0009*%
%ADD119R,0.0099X0.0009*%
%ADD120R,0.0171X0.0009*%
%ADD121R,0.0189X0.0009*%
%ADD122R,0.0162X0.0009*%
%ADD123R,0.0216X0.0009*%
%ADD124R,0.0270X0.0009*%
%ADD125R,0.0279X0.0009*%
%ADD126R,0.0117X0.0009*%
%ADD127R,0.0117X0.0009*%
%ADD128R,0.0225X0.0009*%
%ADD129R,0.0099X0.0009*%
%ADD130R,0.0090X0.0009*%
%ADD131R,0.0126X0.0009*%
%ADD132R,0.0369X0.0009*%
%ADD133R,0.0342X0.0009*%
%ADD134R,0.0207X0.0009*%
%ADD135R,0.0117X0.0009*%
%ADD136R,0.0189X0.0009*%
%ADD137R,0.0027X0.0009*%
%ADD138R,0.0045X0.0009*%
%ADD139R,0.0072X0.0009*%
%ADD140R,0.0009X0.0009*%
%ADD141R,0.0378X0.0009*%
%ADD142R,0.0036X0.0009*%
%ADD143R,0.0342X0.0009*%
%ADD144R,0.0342X0.0009*%
%ADD145R,0.0369X0.0009*%
%ADD146R,0.0072X0.0009*%
%ADD147R,0.0189X0.0009*%
%ADD148R,0.0387X0.0009*%
%ADD149R,0.0414X0.0009*%
%ADD150R,0.0441X0.0009*%
%ADD151R,0.0450X0.0009*%
%ADD152R,0.0342X0.0009*%
%ADD153R,0.0405X0.0009*%
%ADD154R,0.0459X0.0009*%
%ADD155R,0.0162X0.0009*%
%ADD156R,0.0468X0.0009*%
%ADD157R,0.0477X0.0009*%
%ADD158R,0.0162X0.0009*%
%ADD159R,0.0477X0.0009*%
%ADD160R,0.0054X0.0009*%
%ADD161R,0.0495X0.0009*%
%ADD162R,0.0207X0.0009*%
%ADD163R,0.0117X0.0009*%
%ADD164R,0.0504X0.0009*%
%ADD165R,0.0063X0.0009*%
%ADD166R,0.0207X0.0009*%
%ADD167R,0.0162X0.0009*%
%ADD168R,0.0504X0.0009*%
%ADD169R,0.0504X0.0009*%
%ADD170R,0.0018X0.0009*%
%ADD171R,0.0333X0.0009*%
%ADD172R,0.0054X0.0009*%
%ADD173R,0.0486X0.0009*%
%ADD174R,0.0477X0.0009*%
%ADD175R,0.0459X0.0009*%
%ADD176R,0.0459X0.0009*%
%ADD177R,0.0450X0.0009*%
%ADD178R,0.0432X0.0009*%
%ADD179R,0.0432X0.0009*%
%ADD180R,0.0414X0.0009*%
%ADD181R,0.0324X0.0009*%
%ADD182R,0.0027X0.0009*%
%ADD183R,0.0630X0.0009*%
%ADD184R,0.0639X0.0009*%
%ADD185R,0.0639X0.0009*%
%ADD186R,0.0054X0.0009*%
%ADD187R,0.0027X0.0009*%
%ADD188R,0.0387X0.0009*%
%ADD189R,0.0540X0.0009*%
%ADD190R,0.0558X0.0009*%
%ADD191R,0.0576X0.0009*%
%ADD192R,0.0612X0.0009*%
%ADD193R,0.0684X0.0009*%
%ADD194R,0.0594X0.0009*%
%ADD195R,0.1323X0.0009*%
%ADD196R,0.1287X0.0009*%
%ADD197R,0.1260X0.0009*%
%ADD198R,0.1233X0.0009*%
%ADD199R,0.1197X0.0009*%
%ADD200R,0.1170X0.0009*%
%ADD201R,0.1143X0.0009*%
%ADD202R,0.1107X0.0009*%
%ADD203R,0.1080X0.0009*%
%ADD204R,0.1044X0.0009*%
%ADD205R,0.1008X0.0009*%
%ADD206R,0.0981X0.0009*%
%ADD207R,0.0945X0.0009*%
%ADD208R,0.0909X0.0009*%
%ADD209R,0.0873X0.0009*%
%ADD210R,0.0828X0.0009*%
%ADD211R,0.0792X0.0009*%
%ADD212R,0.0738X0.0009*%
%ADD213R,0.0702X0.0009*%
%ADD214R,0.0648X0.0009*%
%ADD215R,0.0297X0.0009*%
%ADD216R,0.1143X0.0009*%
%ADD217R,0.1062X0.0009*%
%ADD218R,0.0954X0.0009*%
%ADD219R,0.0900X0.0009*%
%ADD220R,0.0846X0.0009*%
%ADD221R,0.0720X0.0009*%
%ADD222R,0.0648X0.0009*%
%ADD223R,0.0414X0.0009*%
%ADD224R,0.0549X0.0009*%
%ADD225R,0.1413X0.0009*%
%ADD226R,0.1368X0.0009*%
%ADD227R,0.1206X0.0009*%
%ADD228R,0.1152X0.0009*%
%ADD229R,0.1026X0.0009*%
%ADD230R,0.0882X0.0009*%
%ADD231R,0.0792X0.0009*%
%ADD232C,0.0040*%
%ADD233C,0.0080*%
%ADD234C,0.0060*%
%ADD235C,0.0050*%
%ADD236C,0.0276*%
%ADD237R,0.0098X0.0098*%
D10*
X011200Y000200D02*
X028200Y000200D01*
X039200Y011200D02*
X039197Y011466D01*
X039187Y011731D01*
X039171Y011997D01*
X039149Y012262D01*
X039120Y012526D01*
X039085Y012789D01*
X039043Y013052D01*
X038995Y013313D01*
X038941Y013574D01*
X038880Y013832D01*
X038814Y014090D01*
X038741Y014345D01*
X038662Y014599D01*
X038576Y014851D01*
X038485Y015101D01*
X038388Y015348D01*
X038285Y015593D01*
X038176Y015835D01*
X038061Y016075D01*
X037940Y016312D01*
X037814Y016546D01*
X037682Y016777D01*
X037544Y017004D01*
X037401Y017228D01*
X037253Y017449D01*
X037099Y017666D01*
X036940Y017879D01*
X036776Y018088D01*
X036607Y018293D01*
X036434Y018494D01*
X036255Y018691D01*
X036072Y018884D01*
X035884Y019072D01*
X035691Y019255D01*
X035494Y019434D01*
X035293Y019607D01*
X035088Y019776D01*
X034879Y019940D01*
X034666Y020099D01*
X034449Y020253D01*
X034228Y020401D01*
X034004Y020544D01*
X033777Y020682D01*
X033546Y020814D01*
X033312Y020940D01*
X033075Y021061D01*
X032835Y021176D01*
X032593Y021285D01*
X032348Y021388D01*
X032101Y021485D01*
X031851Y021576D01*
X031599Y021662D01*
X031345Y021741D01*
X031090Y021814D01*
X030832Y021880D01*
X030574Y021941D01*
X030313Y021995D01*
X030052Y022043D01*
X029789Y022085D01*
X029526Y022120D01*
X029262Y022149D01*
X028997Y022171D01*
X028731Y022187D01*
X028466Y022197D01*
X028200Y022200D01*
X011200Y022200D01*
X000200Y011200D02*
X000203Y010934D01*
X000213Y010669D01*
X000229Y010403D01*
X000251Y010138D01*
X000280Y009874D01*
X000315Y009611D01*
X000357Y009348D01*
X000405Y009087D01*
X000459Y008826D01*
X000520Y008568D01*
X000586Y008310D01*
X000659Y008055D01*
X000738Y007801D01*
X000824Y007549D01*
X000915Y007299D01*
X001012Y007052D01*
X001115Y006807D01*
X001224Y006565D01*
X001339Y006325D01*
X001460Y006088D01*
X001586Y005854D01*
X001718Y005623D01*
X001856Y005396D01*
X001999Y005172D01*
X002147Y004951D01*
X002301Y004734D01*
X002460Y004521D01*
X002624Y004312D01*
X002793Y004107D01*
X002966Y003906D01*
X003145Y003709D01*
X003328Y003516D01*
X003516Y003328D01*
X003709Y003145D01*
X003906Y002966D01*
X004107Y002793D01*
X004312Y002624D01*
X004521Y002460D01*
X004734Y002301D01*
X004951Y002147D01*
X005172Y001999D01*
X005396Y001856D01*
X005623Y001718D01*
X005854Y001586D01*
X006088Y001460D01*
X006325Y001339D01*
X006565Y001224D01*
X006807Y001115D01*
X007052Y001012D01*
X007299Y000915D01*
X007549Y000824D01*
X007801Y000738D01*
X008055Y000659D01*
X008310Y000586D01*
X008568Y000520D01*
X008826Y000459D01*
X009087Y000405D01*
X009348Y000357D01*
X009611Y000315D01*
X009874Y000280D01*
X010138Y000251D01*
X010403Y000229D01*
X010669Y000213D01*
X010934Y000203D01*
X011200Y000200D01*
X000200Y011200D02*
X000203Y011466D01*
X000213Y011731D01*
X000229Y011997D01*
X000251Y012262D01*
X000280Y012526D01*
X000315Y012789D01*
X000357Y013052D01*
X000405Y013313D01*
X000459Y013574D01*
X000520Y013832D01*
X000586Y014090D01*
X000659Y014345D01*
X000738Y014599D01*
X000824Y014851D01*
X000915Y015101D01*
X001012Y015348D01*
X001115Y015593D01*
X001224Y015835D01*
X001339Y016075D01*
X001460Y016312D01*
X001586Y016546D01*
X001718Y016777D01*
X001856Y017004D01*
X001999Y017228D01*
X002147Y017449D01*
X002301Y017666D01*
X002460Y017879D01*
X002624Y018088D01*
X002793Y018293D01*
X002966Y018494D01*
X003145Y018691D01*
X003328Y018884D01*
X003516Y019072D01*
X003709Y019255D01*
X003906Y019434D01*
X004107Y019607D01*
X004312Y019776D01*
X004521Y019940D01*
X004734Y020099D01*
X004951Y020253D01*
X005172Y020401D01*
X005396Y020544D01*
X005623Y020682D01*
X005854Y020814D01*
X006088Y020940D01*
X006325Y021061D01*
X006565Y021176D01*
X006807Y021285D01*
X007052Y021388D01*
X007299Y021485D01*
X007549Y021576D01*
X007801Y021662D01*
X008055Y021741D01*
X008310Y021814D01*
X008568Y021880D01*
X008826Y021941D01*
X009087Y021995D01*
X009348Y022043D01*
X009611Y022085D01*
X009874Y022120D01*
X010138Y022149D01*
X010403Y022171D01*
X010669Y022187D01*
X010934Y022197D01*
X011200Y022200D01*
X028200Y000200D02*
X028466Y000203D01*
X028731Y000213D01*
X028997Y000229D01*
X029262Y000251D01*
X029526Y000280D01*
X029789Y000315D01*
X030052Y000357D01*
X030313Y000405D01*
X030574Y000459D01*
X030832Y000520D01*
X031090Y000586D01*
X031345Y000659D01*
X031599Y000738D01*
X031851Y000824D01*
X032101Y000915D01*
X032348Y001012D01*
X032593Y001115D01*
X032835Y001224D01*
X033075Y001339D01*
X033312Y001460D01*
X033546Y001586D01*
X033777Y001718D01*
X034004Y001856D01*
X034228Y001999D01*
X034449Y002147D01*
X034666Y002301D01*
X034879Y002460D01*
X035088Y002624D01*
X035293Y002793D01*
X035494Y002966D01*
X035691Y003145D01*
X035884Y003328D01*
X036072Y003516D01*
X036255Y003709D01*
X036434Y003906D01*
X036607Y004107D01*
X036776Y004312D01*
X036940Y004521D01*
X037099Y004734D01*
X037253Y004951D01*
X037401Y005172D01*
X037544Y005396D01*
X037682Y005623D01*
X037814Y005854D01*
X037940Y006088D01*
X038061Y006325D01*
X038176Y006565D01*
X038285Y006807D01*
X038388Y007052D01*
X038485Y007299D01*
X038576Y007549D01*
X038662Y007801D01*
X038741Y008055D01*
X038814Y008310D01*
X038880Y008568D01*
X038941Y008826D01*
X038995Y009087D01*
X039043Y009348D01*
X039085Y009611D01*
X039120Y009874D01*
X039149Y010138D01*
X039171Y010403D01*
X039187Y010669D01*
X039197Y010934D01*
X039200Y011200D01*
D11*
X011274Y020306D03*
X011265Y020315D03*
X011256Y020324D03*
X011247Y020333D03*
X011229Y020351D03*
X011220Y020360D03*
X011211Y020369D03*
X011202Y020378D03*
X011157Y020423D03*
X010815Y019991D03*
X010833Y019973D03*
X009987Y019460D03*
X009474Y018920D03*
X009654Y018614D03*
X009096Y019028D03*
X008916Y018704D03*
X008718Y018146D03*
X007242Y017858D03*
X006954Y017615D03*
X006639Y017561D03*
X006333Y017318D03*
X006333Y017309D03*
X006126Y017138D03*
X005622Y016886D03*
X005613Y016895D03*
X005631Y016868D03*
X005640Y016850D03*
X005658Y016814D03*
X005667Y016796D03*
X005676Y016778D03*
X005685Y016760D03*
X005703Y016724D03*
X005712Y016706D03*
X005721Y016688D03*
X005730Y016670D03*
X005397Y016526D03*
X005388Y016535D03*
X005388Y016544D03*
X005379Y016553D03*
X005370Y016571D03*
X005370Y016580D03*
X005361Y016589D03*
X005361Y016598D03*
X005352Y016616D03*
X005343Y016625D03*
X005343Y016634D03*
X005334Y016643D03*
X005325Y016661D03*
X005325Y016670D03*
X005316Y016679D03*
X005316Y016688D03*
X005307Y016706D03*
X005298Y016715D03*
X005298Y016724D03*
X005289Y016733D03*
X005406Y016499D03*
X005100Y016355D03*
X005100Y016346D03*
X005091Y016373D03*
X005082Y016391D03*
X005073Y016409D03*
X005055Y016445D03*
X005046Y016463D03*
X005037Y016481D03*
X005028Y016499D03*
X005010Y016535D03*
X005001Y016553D03*
X004992Y016571D03*
X004983Y016589D03*
X004965Y016625D03*
X004956Y016643D03*
X005532Y017030D03*
X006864Y017003D03*
X003615Y016094D03*
X003615Y016085D03*
X003615Y016076D03*
X003624Y016058D03*
X003750Y015671D03*
X004002Y015095D03*
X002949Y017021D03*
X002958Y017030D03*
X002967Y017039D03*
X002976Y017048D03*
X002994Y017066D03*
X003003Y017075D03*
X002616Y017471D03*
X002625Y017480D03*
X002634Y017489D03*
X002598Y017453D03*
X002589Y017444D03*
X002580Y017435D03*
X002571Y017426D03*
X003021Y017795D03*
D12*
X007197Y017813D03*
X010437Y018371D03*
X010437Y019568D03*
X010392Y020270D03*
X004002Y015104D03*
D13*
X004002Y015113D03*
D14*
X004002Y015122D03*
X003777Y016922D03*
D15*
X004007Y015131D03*
D16*
X004007Y015140D03*
X004421Y015329D03*
D17*
X004007Y015149D03*
D18*
X004007Y015158D03*
D19*
X004011Y015167D03*
D20*
X004007Y015176D03*
D21*
X004011Y015185D03*
D22*
X004011Y015194D03*
D23*
X002180Y015203D03*
X004070Y016490D03*
X004979Y016760D03*
X006554Y016958D03*
X007346Y017426D03*
X007625Y017921D03*
X009281Y018389D03*
D24*
X004011Y015203D03*
D25*
X003710Y015617D03*
X005060Y016292D03*
X005051Y016742D03*
X007283Y017912D03*
X002189Y015212D03*
D26*
X004011Y015212D03*
D27*
X002193Y015221D03*
X004083Y016508D03*
X005226Y016895D03*
X005838Y017165D03*
X005847Y017174D03*
X006036Y017273D03*
X006657Y017111D03*
X007287Y017426D03*
X007278Y017903D03*
X007638Y017939D03*
X009861Y018695D03*
X010077Y019199D03*
D28*
X004016Y015221D03*
D29*
X003723Y015635D03*
X003624Y016283D03*
X003633Y016301D03*
X003642Y016310D03*
X003651Y016319D03*
X005073Y016310D03*
X005379Y016463D03*
X005388Y016904D03*
X006153Y016859D03*
X006162Y016868D03*
X006225Y017039D03*
X006531Y016931D03*
X006396Y017471D03*
X006990Y017759D03*
X007269Y017894D03*
X007647Y017948D03*
X008610Y018551D03*
X008691Y018110D03*
X009627Y018578D03*
X010014Y019496D03*
X011040Y019640D03*
X011535Y019883D03*
X003291Y017345D03*
X003048Y017840D03*
X002202Y015230D03*
D30*
X004016Y015230D03*
D31*
X003732Y015644D03*
X003615Y016256D03*
X003615Y016265D03*
X004659Y016823D03*
X005397Y016913D03*
X005712Y016634D03*
X006189Y016913D03*
X006216Y017030D03*
X006468Y017021D03*
X006792Y016850D03*
X006810Y016859D03*
X006819Y016868D03*
X006837Y016895D03*
X006351Y017426D03*
X005820Y017120D03*
X006963Y017714D03*
X006972Y017723D03*
X007035Y017786D03*
X007323Y017435D03*
X007899Y018344D03*
X008700Y018119D03*
X009060Y018299D03*
X011049Y019649D03*
X009834Y020459D03*
X009285Y020234D03*
X009033Y020729D03*
X003291Y017336D03*
X005082Y016319D03*
X002211Y015239D03*
D32*
X004016Y015239D03*
D33*
X003737Y015653D03*
X003602Y016184D03*
X003602Y016193D03*
X004106Y016535D03*
X005087Y016328D03*
X005393Y016481D03*
X006194Y016958D03*
X006095Y017111D03*
X006032Y017264D03*
X005816Y017084D03*
X005816Y017075D03*
X006338Y017390D03*
X006653Y017579D03*
X007256Y017876D03*
X007661Y017966D03*
X008201Y018245D03*
X008705Y018128D03*
X009641Y018596D03*
X009461Y018875D03*
X009128Y019055D03*
X010001Y019478D03*
X011054Y019658D03*
X009290Y020243D03*
X009047Y020738D03*
X007346Y017453D03*
X006851Y016931D03*
X002702Y016643D03*
X002693Y016625D03*
X002684Y016598D03*
X002675Y016580D03*
X002666Y016553D03*
X002657Y016535D03*
X002657Y016526D03*
X002648Y016508D03*
X002648Y016499D03*
X002639Y016481D03*
X002639Y016463D03*
X002630Y016454D03*
X002630Y016445D03*
X002630Y016436D03*
X002621Y016418D03*
X002621Y016409D03*
X002621Y016400D03*
X002621Y016391D03*
X002612Y016373D03*
X002612Y016364D03*
X002612Y016355D03*
X002612Y016346D03*
X002603Y016328D03*
X002603Y016319D03*
X002603Y016310D03*
X002603Y016301D03*
X002594Y016283D03*
X002594Y016274D03*
X002594Y016265D03*
X002594Y016256D03*
X002594Y016238D03*
X002594Y016229D03*
X002585Y016193D03*
X002585Y016184D03*
X002585Y016175D03*
X002585Y016166D03*
X002585Y016148D03*
X002585Y016139D03*
X002585Y016130D03*
X002585Y016121D03*
X002585Y016103D03*
X002585Y016094D03*
X002585Y016085D03*
X002585Y016076D03*
X002585Y016058D03*
X002585Y016049D03*
X002585Y016040D03*
X002585Y016031D03*
X002585Y016013D03*
X002585Y016004D03*
X002585Y015995D03*
X002585Y015986D03*
X002585Y015968D03*
X002594Y015941D03*
X002594Y015923D03*
X002594Y015914D03*
X002594Y015905D03*
X002594Y015896D03*
X002603Y015869D03*
X002603Y015860D03*
X002603Y015851D03*
X002603Y015833D03*
X002612Y015815D03*
X002612Y015806D03*
X002612Y015788D03*
X002621Y015779D03*
X002621Y015770D03*
X002621Y015761D03*
X002630Y015734D03*
X002630Y015725D03*
X002630Y015716D03*
X002639Y015698D03*
X002639Y015689D03*
X002648Y015671D03*
X002657Y015644D03*
X002657Y015635D03*
X002666Y015608D03*
X002675Y015590D03*
X002684Y015563D03*
X002693Y015545D03*
X002189Y015320D03*
X002171Y015365D03*
X002162Y015383D03*
X002153Y015410D03*
X002144Y015428D03*
X002135Y015455D03*
X002135Y015464D03*
X002126Y015491D03*
X002117Y015509D03*
X002117Y015518D03*
X002108Y015536D03*
X002108Y015545D03*
X002108Y015554D03*
X002099Y015581D03*
X002099Y015590D03*
X002090Y015599D03*
X002090Y015608D03*
X002090Y015626D03*
X002081Y015635D03*
X002081Y015644D03*
X002081Y015653D03*
X002072Y015680D03*
X002072Y015689D03*
X002072Y015698D03*
X002063Y015725D03*
X002063Y015734D03*
X002063Y015743D03*
X002063Y015761D03*
X002054Y015770D03*
X002054Y015779D03*
X002054Y015788D03*
X002054Y015806D03*
X002054Y015815D03*
X002045Y015833D03*
X002045Y015851D03*
X002045Y015860D03*
X002045Y015869D03*
X002045Y015878D03*
X002045Y015896D03*
X002036Y015923D03*
X002036Y015941D03*
X002036Y015950D03*
X002036Y015959D03*
X002036Y015968D03*
X002036Y015986D03*
X002036Y015995D03*
X002036Y016004D03*
X002036Y016013D03*
X002036Y016031D03*
X002036Y016040D03*
X002036Y016049D03*
X002036Y016058D03*
X002036Y016076D03*
X002036Y016085D03*
X002036Y016094D03*
X002036Y016103D03*
X002036Y016121D03*
X002036Y016130D03*
X002036Y016139D03*
X002036Y016148D03*
X002036Y016166D03*
X002036Y016175D03*
X002036Y016184D03*
X002036Y016193D03*
X002036Y016211D03*
X002036Y016220D03*
X002036Y016229D03*
X002036Y016238D03*
X002045Y016265D03*
X002045Y016274D03*
X002045Y016283D03*
X002045Y016301D03*
X002045Y016310D03*
X002045Y016319D03*
X002045Y016328D03*
X002054Y016346D03*
X002054Y016355D03*
X002054Y016364D03*
X002054Y016373D03*
X002054Y016391D03*
X002063Y016409D03*
X002063Y016418D03*
X002063Y016436D03*
X002063Y016445D03*
X002072Y016454D03*
X002072Y016463D03*
X002072Y016481D03*
X002072Y016490D03*
X002081Y016499D03*
X002081Y016508D03*
X002081Y016526D03*
X002090Y016535D03*
X002090Y016544D03*
X002090Y016553D03*
X002099Y016571D03*
X002099Y016580D03*
X002099Y016589D03*
X002099Y016598D03*
X002108Y016616D03*
X002108Y016625D03*
X002117Y016643D03*
X002126Y016670D03*
X002126Y016679D03*
X002135Y016706D03*
X002144Y016724D03*
X002144Y016733D03*
X002153Y016751D03*
X002153Y016760D03*
X002162Y016778D03*
X002171Y016805D03*
X002180Y016823D03*
X002198Y016868D03*
X002207Y016886D03*
X002216Y015248D03*
D34*
X004020Y015248D03*
X009834Y020351D03*
D35*
X011031Y019712D03*
X011058Y019667D03*
X011535Y019937D03*
X010059Y019172D03*
X007359Y017462D03*
X006333Y017372D03*
X006198Y017012D03*
X002751Y016742D03*
X002724Y016697D03*
X002706Y016652D03*
X002688Y016607D03*
X002184Y016832D03*
X002166Y016787D03*
X002148Y016742D03*
X002220Y016922D03*
X002634Y015707D03*
X002679Y015572D03*
X002175Y015347D03*
X002193Y015302D03*
X002220Y015257D03*
D36*
X004020Y015257D03*
D37*
X004605Y016094D03*
X003606Y016166D03*
X003606Y016175D03*
X002760Y016760D03*
X002769Y016778D03*
X002733Y016715D03*
X002733Y016706D03*
X002724Y016688D03*
X002715Y016679D03*
X002715Y016670D03*
X002706Y016661D03*
X002688Y016616D03*
X002679Y016589D03*
X002670Y016571D03*
X002661Y016544D03*
X002643Y016490D03*
X002121Y016661D03*
X002130Y016688D03*
X002139Y016715D03*
X002166Y016796D03*
X002175Y016814D03*
X002184Y016841D03*
X002193Y016850D03*
X002193Y016859D03*
X002211Y016895D03*
X002211Y016904D03*
X002220Y016913D03*
X002229Y016931D03*
X002229Y016940D03*
X002238Y016949D03*
X002238Y016958D03*
X002256Y016985D03*
X002265Y017003D03*
X002274Y017021D03*
X002283Y017039D03*
X002310Y017084D03*
X003030Y017813D03*
X005820Y017066D03*
X006000Y017066D03*
X006018Y017075D03*
X006036Y017084D03*
X006054Y017093D03*
X006108Y017120D03*
X006198Y016976D03*
X006594Y016760D03*
X006855Y016940D03*
X006855Y016949D03*
X006333Y017381D03*
X006954Y017669D03*
X006954Y017678D03*
X007980Y017885D03*
X009465Y018884D03*
X009393Y019163D03*
X009114Y019046D03*
X011013Y019739D03*
X011040Y019694D03*
X011049Y019676D03*
X011544Y019919D03*
X011553Y019910D03*
X011526Y019955D03*
X011499Y020000D03*
X002625Y015743D03*
X002643Y015680D03*
X002661Y015626D03*
X002670Y015599D03*
X002679Y015581D03*
X002688Y015554D03*
X002706Y015518D03*
X002706Y015509D03*
X002715Y015500D03*
X002211Y015275D03*
X002211Y015266D03*
X002193Y015311D03*
X002184Y015329D03*
X002184Y015338D03*
X002175Y015356D03*
X002166Y015374D03*
X002148Y015419D03*
X002139Y015446D03*
X002130Y015473D03*
X002121Y015500D03*
X002103Y015563D03*
X002076Y015671D03*
D38*
X004025Y015266D03*
D39*
X004029Y015275D03*
X009834Y020333D03*
D40*
X009312Y018434D03*
X006522Y016913D03*
X005532Y017039D03*
X002742Y016733D03*
X002742Y016724D03*
X002697Y016634D03*
X002157Y016769D03*
X002112Y016634D03*
X002247Y016976D03*
X002652Y015653D03*
X002697Y015536D03*
X002202Y015293D03*
X002202Y015284D03*
X002157Y015401D03*
D41*
X004029Y015284D03*
D42*
X004034Y015293D03*
D43*
X004038Y015302D03*
D44*
X004038Y015311D03*
X009834Y020900D03*
D45*
X004043Y015320D03*
D46*
X003629Y015329D03*
X004556Y015374D03*
X009272Y019658D03*
D47*
X010113Y018146D03*
X003714Y016886D03*
X003597Y015338D03*
D48*
X004457Y015338D03*
X009830Y019901D03*
X009830Y020990D03*
D49*
X003575Y015347D03*
D50*
X004484Y015347D03*
X009830Y020432D03*
D51*
X003597Y016814D03*
X003552Y015356D03*
D52*
X004511Y015356D03*
X010289Y020873D03*
D53*
X010253Y020315D03*
X009416Y020315D03*
X010262Y018236D03*
X007967Y018191D03*
X007895Y018020D03*
X004349Y016589D03*
X003584Y016805D03*
X003566Y016796D03*
X003539Y015365D03*
D54*
X004533Y015365D03*
X009312Y019676D03*
D55*
X009830Y019091D03*
X010316Y019658D03*
X010289Y018254D03*
X007904Y018029D03*
X003539Y016778D03*
X003521Y015374D03*
D56*
X003507Y015383D03*
X003525Y016769D03*
X004353Y016598D03*
X009348Y019100D03*
X010302Y018263D03*
X010284Y020306D03*
X010473Y020828D03*
D57*
X009231Y019640D03*
X008592Y019325D03*
X008538Y019298D03*
X008502Y019280D03*
X008448Y019253D03*
X008412Y019235D03*
X005901Y017984D03*
X005883Y017975D03*
X005811Y017939D03*
X005793Y017930D03*
X005091Y017579D03*
X005073Y017570D03*
X005847Y016013D03*
X005811Y015995D03*
X005793Y015986D03*
X005883Y016031D03*
X005901Y016040D03*
X005937Y016058D03*
X005973Y016076D03*
X005991Y016085D03*
X005397Y015788D03*
X004578Y015383D03*
D58*
X002697Y015527D03*
X002157Y015392D03*
X002652Y016517D03*
X002202Y016877D03*
X002247Y016967D03*
X005982Y017057D03*
D59*
X006491Y017102D03*
X003494Y015392D03*
X009821Y019082D03*
X010316Y018272D03*
D60*
X008556Y019307D03*
X008466Y019262D03*
X005937Y018002D03*
X005847Y017957D03*
X005757Y017912D03*
X005127Y017597D03*
X004596Y015392D03*
D61*
X003480Y015401D03*
X003498Y016751D03*
X006621Y016823D03*
X007908Y018038D03*
X007953Y018173D03*
X008889Y018596D03*
X008889Y018605D03*
X010329Y018281D03*
X010347Y019640D03*
X009384Y020306D03*
X010500Y020819D03*
D62*
X010217Y019703D03*
X009209Y019631D03*
X009173Y019613D03*
X009155Y019604D03*
X009137Y019595D03*
X009119Y019586D03*
X009083Y019568D03*
X009065Y019559D03*
X009047Y019550D03*
X009029Y019541D03*
X008993Y019523D03*
X008975Y019514D03*
X008957Y019505D03*
X008939Y019496D03*
X008903Y019478D03*
X008885Y019469D03*
X008867Y019460D03*
X008849Y019451D03*
X008813Y019433D03*
X008795Y019424D03*
X008777Y019415D03*
X008759Y019406D03*
X008723Y019388D03*
X008705Y019379D03*
X008687Y019370D03*
X008669Y019361D03*
X008633Y019343D03*
X008390Y019226D03*
X008354Y019208D03*
X008336Y019199D03*
X008318Y019190D03*
X008300Y019181D03*
X008264Y019163D03*
X008246Y019154D03*
X008228Y019145D03*
X008210Y019136D03*
X008174Y019118D03*
X008156Y019109D03*
X008138Y019100D03*
X008120Y019091D03*
X008084Y019073D03*
X008066Y019064D03*
X008048Y019055D03*
X008030Y019046D03*
X007994Y019028D03*
X007976Y019019D03*
X007958Y019010D03*
X007940Y019001D03*
X007904Y018983D03*
X007886Y018974D03*
X007868Y018965D03*
X007850Y018956D03*
X007814Y018938D03*
X007796Y018929D03*
X007778Y018920D03*
X007760Y018911D03*
X007724Y018893D03*
X007706Y018884D03*
X007688Y018875D03*
X007670Y018866D03*
X007634Y018848D03*
X007616Y018839D03*
X007598Y018830D03*
X007580Y018821D03*
X007544Y018803D03*
X007526Y018794D03*
X007508Y018785D03*
X007490Y018776D03*
X007454Y018758D03*
X007436Y018749D03*
X007418Y018740D03*
X007400Y018731D03*
X007364Y018713D03*
X007346Y018704D03*
X007328Y018695D03*
X007310Y018686D03*
X007274Y018668D03*
X007256Y018659D03*
X007238Y018650D03*
X007220Y018641D03*
X007184Y018623D03*
X007166Y018614D03*
X007148Y018605D03*
X007130Y018596D03*
X007094Y018578D03*
X007076Y018569D03*
X007058Y018560D03*
X007040Y018551D03*
X007004Y018533D03*
X006986Y018524D03*
X006968Y018515D03*
X006950Y018506D03*
X006914Y018488D03*
X006896Y018479D03*
X006878Y018470D03*
X006860Y018461D03*
X006824Y018443D03*
X006806Y018434D03*
X006788Y018425D03*
X006770Y018416D03*
X006734Y018398D03*
X006716Y018389D03*
X006698Y018380D03*
X006680Y018371D03*
X006644Y018353D03*
X006626Y018344D03*
X006608Y018335D03*
X006590Y018326D03*
X006554Y018308D03*
X006536Y018299D03*
X006518Y018290D03*
X006500Y018281D03*
X006464Y018263D03*
X006446Y018254D03*
X006428Y018245D03*
X006410Y018236D03*
X006374Y018218D03*
X006356Y018209D03*
X006338Y018200D03*
X006320Y018191D03*
X006284Y018173D03*
X006266Y018164D03*
X006248Y018155D03*
X006230Y018146D03*
X006194Y018128D03*
X006176Y018119D03*
X006158Y018110D03*
X006140Y018101D03*
X006104Y018083D03*
X006086Y018074D03*
X006068Y018065D03*
X006050Y018056D03*
X006014Y018038D03*
X005996Y018029D03*
X005978Y018020D03*
X005717Y017894D03*
X005699Y017885D03*
X005681Y017876D03*
X005645Y017858D03*
X005627Y017849D03*
X005609Y017840D03*
X005591Y017831D03*
X005555Y017813D03*
X005537Y017804D03*
X005519Y017795D03*
X005501Y017786D03*
X005465Y017768D03*
X005447Y017759D03*
X005429Y017750D03*
X005411Y017741D03*
X005375Y017723D03*
X005357Y017714D03*
X005339Y017705D03*
X005321Y017696D03*
X005285Y017678D03*
X005267Y017669D03*
X005249Y017660D03*
X005231Y017651D03*
X005195Y017633D03*
X005177Y017624D03*
X005159Y017615D03*
X005015Y017543D03*
X004997Y017534D03*
X004979Y017525D03*
X004961Y017516D03*
X004925Y017498D03*
X004907Y017489D03*
X004889Y017480D03*
X004871Y017471D03*
X004835Y017453D03*
X004817Y017444D03*
X004799Y017435D03*
X004781Y017426D03*
X004745Y017408D03*
X004727Y017399D03*
X004709Y017390D03*
X004691Y017381D03*
X004655Y017363D03*
X004637Y017354D03*
X004619Y017345D03*
X004601Y017336D03*
X004565Y017318D03*
X004547Y017309D03*
X004529Y017300D03*
X004511Y017291D03*
X004475Y017273D03*
X004457Y017264D03*
X004439Y017255D03*
X004421Y017246D03*
X004385Y017228D03*
X004367Y017219D03*
X004349Y017210D03*
X004331Y017201D03*
X004295Y017183D03*
X004277Y017174D03*
X004259Y017165D03*
X004241Y017156D03*
X004205Y017138D03*
X004187Y017129D03*
X004169Y017120D03*
X004151Y017111D03*
X004115Y017093D03*
X004097Y017084D03*
X004079Y017075D03*
X004061Y017066D03*
X004025Y017048D03*
X004007Y017039D03*
X003989Y017030D03*
X003971Y017021D03*
X003935Y017003D03*
X003917Y016994D03*
X003899Y016985D03*
X003881Y016976D03*
X003845Y016958D03*
X003827Y016949D03*
X003809Y016940D03*
X005177Y015680D03*
X005195Y015689D03*
X005213Y015698D03*
X005249Y015716D03*
X005267Y015725D03*
X005285Y015734D03*
X005303Y015743D03*
X005339Y015761D03*
X005357Y015770D03*
X005438Y015806D03*
X005456Y015815D03*
X005474Y015824D03*
X005492Y015833D03*
X005528Y015851D03*
X005546Y015860D03*
X005564Y015869D03*
X005582Y015878D03*
X005618Y015896D03*
X005636Y015905D03*
X005654Y015914D03*
X005672Y015923D03*
X005708Y015941D03*
X005726Y015950D03*
X005744Y015959D03*
X005762Y015968D03*
X006032Y016103D03*
X006068Y016121D03*
X006086Y016130D03*
X006104Y016139D03*
X006122Y016148D03*
X006158Y016166D03*
X006176Y016175D03*
X006194Y016184D03*
X006212Y016193D03*
X006248Y016211D03*
X006266Y016220D03*
X006284Y016229D03*
X006302Y016238D03*
X006338Y016256D03*
X006356Y016265D03*
X006374Y016274D03*
X006392Y016283D03*
X006428Y016301D03*
X006446Y016310D03*
X006464Y016319D03*
X006482Y016328D03*
X006518Y016346D03*
X006536Y016355D03*
X006554Y016364D03*
X006572Y016373D03*
X006608Y016391D03*
X006626Y016400D03*
X006644Y016409D03*
X006662Y016418D03*
X006698Y016436D03*
X006716Y016445D03*
X006734Y016454D03*
X006752Y016463D03*
X006788Y016481D03*
X006806Y016490D03*
X006824Y016499D03*
X006842Y016508D03*
X006878Y016526D03*
X006896Y016535D03*
X006914Y016544D03*
X006932Y016553D03*
X006968Y016571D03*
X006986Y016580D03*
X007004Y016589D03*
X007022Y016598D03*
X007058Y016616D03*
X007076Y016625D03*
X007094Y016634D03*
X007112Y016643D03*
X007148Y016661D03*
X007166Y016670D03*
X007184Y016679D03*
X007202Y016688D03*
X007238Y016706D03*
X007256Y016715D03*
X007274Y016724D03*
X007292Y016733D03*
X007328Y016751D03*
X007346Y016760D03*
X007364Y016769D03*
X007382Y016778D03*
X007418Y016796D03*
X007436Y016805D03*
X007454Y016814D03*
X007472Y016823D03*
X007508Y016841D03*
X007526Y016850D03*
X007544Y016859D03*
X007562Y016868D03*
X007598Y016886D03*
X007616Y016895D03*
X007634Y016904D03*
X007652Y016913D03*
X007688Y016931D03*
X007706Y016940D03*
X007724Y016949D03*
X007742Y016958D03*
X007778Y016976D03*
X007796Y016985D03*
X007814Y016994D03*
X007832Y017003D03*
X007868Y017021D03*
X007886Y017030D03*
X007904Y017039D03*
X007922Y017048D03*
X007958Y017066D03*
X007976Y017075D03*
X007994Y017084D03*
X008012Y017093D03*
X008048Y017111D03*
X008066Y017120D03*
X008084Y017129D03*
X008102Y017138D03*
X008138Y017156D03*
X008156Y017165D03*
X008174Y017174D03*
X008192Y017183D03*
X008228Y017201D03*
X008246Y017210D03*
X008543Y017354D03*
X008561Y017363D03*
X008597Y017381D03*
X008615Y017390D03*
X008633Y017399D03*
X008651Y017408D03*
X008687Y017426D03*
X008705Y017435D03*
X008723Y017444D03*
X008741Y017453D03*
X008777Y017471D03*
X008795Y017480D03*
X008813Y017489D03*
X008831Y017498D03*
X008867Y017516D03*
X008885Y017525D03*
X008903Y017534D03*
X008921Y017543D03*
X008957Y017561D03*
X008975Y017570D03*
X008993Y017579D03*
X009011Y017588D03*
X009047Y017606D03*
X009065Y017615D03*
X009083Y017624D03*
X009101Y017633D03*
X009137Y017651D03*
X009155Y017660D03*
X009173Y017669D03*
X009191Y017678D03*
X009227Y017696D03*
X009245Y017705D03*
X009263Y017714D03*
X009281Y017723D03*
X009317Y017741D03*
X009335Y017750D03*
X009353Y017759D03*
X009371Y017768D03*
X009407Y017786D03*
X009425Y017795D03*
X009443Y017804D03*
X009461Y017813D03*
X009497Y017831D03*
X009515Y017840D03*
X009533Y017849D03*
X009551Y017858D03*
X009587Y017876D03*
X009605Y017885D03*
X009623Y017894D03*
X009641Y017903D03*
X009677Y017921D03*
X009695Y017930D03*
X009713Y017939D03*
X009731Y017948D03*
X009767Y017966D03*
X009785Y017975D03*
X009803Y017984D03*
X009821Y017993D03*
X009857Y018011D03*
X009875Y018020D03*
X009893Y018029D03*
X009911Y018038D03*
X009947Y018056D03*
X009965Y018065D03*
X009983Y018074D03*
X010001Y018083D03*
X005159Y015671D03*
X005123Y015653D03*
X005105Y015644D03*
X005087Y015635D03*
X005069Y015626D03*
X005033Y015608D03*
X005015Y015599D03*
X004997Y015590D03*
X004979Y015581D03*
X004943Y015563D03*
X004925Y015554D03*
X004907Y015545D03*
X004889Y015536D03*
X004853Y015518D03*
X004835Y015509D03*
X004817Y015500D03*
X004799Y015491D03*
X004763Y015473D03*
X004745Y015464D03*
X004727Y015455D03*
X004709Y015446D03*
X004673Y015428D03*
X004655Y015419D03*
X004637Y015410D03*
X004619Y015401D03*
D63*
X004043Y016031D03*
X003467Y015410D03*
X003476Y016733D03*
X006491Y017093D03*
X006581Y017498D03*
X007112Y017399D03*
X007184Y017795D03*
X009353Y019109D03*
X010361Y019631D03*
X009164Y020819D03*
X010343Y018290D03*
D64*
X010356Y018299D03*
X010365Y018308D03*
X009816Y019073D03*
X010383Y019613D03*
X009825Y019928D03*
X009141Y020810D03*
X010527Y020810D03*
X008889Y018614D03*
X007944Y018164D03*
X006621Y016814D03*
X003462Y016724D03*
X003453Y015419D03*
D65*
X003440Y015428D03*
X004052Y016040D03*
X004367Y016616D03*
X003458Y016715D03*
X008894Y018623D03*
X010388Y018326D03*
X010406Y019595D03*
X010397Y019604D03*
X010343Y020288D03*
X010550Y020801D03*
D66*
X006077Y017102D03*
X006194Y016967D03*
X006851Y016922D03*
X003602Y016202D03*
X002630Y016427D03*
X002639Y016472D03*
X002666Y016562D03*
X002612Y016382D03*
X002603Y016337D03*
X002603Y016292D03*
X002594Y016247D03*
X002585Y016202D03*
X002585Y016157D03*
X002585Y016112D03*
X002585Y016067D03*
X002585Y016022D03*
X002585Y015977D03*
X002594Y015932D03*
X002594Y015887D03*
X002603Y015842D03*
X002612Y015797D03*
X002621Y015752D03*
X002648Y015662D03*
X002666Y015617D03*
X002144Y015437D03*
X002126Y015482D03*
X002117Y015527D03*
X002099Y015572D03*
X002090Y015617D03*
X002081Y015662D03*
X002072Y015707D03*
X002063Y015752D03*
X002054Y015797D03*
X002045Y015842D03*
X002045Y015887D03*
X002036Y015932D03*
X002036Y015977D03*
X002036Y016022D03*
X002036Y016067D03*
X002036Y016112D03*
X002036Y016157D03*
X002036Y016202D03*
X002036Y016247D03*
X002045Y016292D03*
X002054Y016382D03*
X002063Y016427D03*
X002072Y016472D03*
X002081Y016517D03*
X002090Y016562D03*
X002108Y016607D03*
X002117Y016652D03*
X002135Y016697D03*
D67*
X003431Y015437D03*
X005519Y016922D03*
X010379Y018317D03*
D68*
X009929Y018047D03*
X009839Y018002D03*
X009749Y017957D03*
X009659Y017912D03*
X009569Y017867D03*
X009479Y017822D03*
X009389Y017777D03*
X009299Y017732D03*
X009209Y017687D03*
X009119Y017642D03*
X009029Y017597D03*
X008939Y017552D03*
X008849Y017507D03*
X008759Y017462D03*
X008669Y017417D03*
X008579Y017372D03*
X008210Y017192D03*
X008120Y017147D03*
X008030Y017102D03*
X007940Y017057D03*
X007850Y017012D03*
X007760Y016967D03*
X007670Y016922D03*
X007580Y016877D03*
X007490Y016832D03*
X007400Y016787D03*
X007310Y016742D03*
X007220Y016697D03*
X007130Y016652D03*
X007040Y016607D03*
X006950Y016562D03*
X006860Y016517D03*
X006770Y016472D03*
X006680Y016427D03*
X006590Y016382D03*
X006500Y016337D03*
X006410Y016292D03*
X006320Y016247D03*
X006230Y016202D03*
X006140Y016157D03*
X006050Y016112D03*
X005780Y015977D03*
X005690Y015932D03*
X005600Y015887D03*
X005510Y015842D03*
X005420Y015797D03*
X005321Y015752D03*
X005231Y015707D03*
X005141Y015662D03*
X005051Y015617D03*
X004961Y015572D03*
X004871Y015527D03*
X004781Y015482D03*
X004691Y015437D03*
X003953Y017012D03*
X004043Y017057D03*
X004133Y017102D03*
X004223Y017147D03*
X004313Y017192D03*
X004403Y017237D03*
X004493Y017282D03*
X004583Y017327D03*
X004673Y017372D03*
X004763Y017417D03*
X004853Y017462D03*
X004943Y017507D03*
X005033Y017552D03*
X005213Y017642D03*
X005303Y017687D03*
X005393Y017732D03*
X005483Y017777D03*
X005573Y017822D03*
X005663Y017867D03*
X006032Y018047D03*
X006122Y018092D03*
X006212Y018137D03*
X006302Y018182D03*
X006392Y018227D03*
X006482Y018272D03*
X006572Y018317D03*
X006662Y018362D03*
X006752Y018407D03*
X006842Y018452D03*
X006932Y018497D03*
X007022Y018542D03*
X007112Y018587D03*
X007202Y018632D03*
X007292Y018677D03*
X007382Y018722D03*
X007472Y018767D03*
X007562Y018812D03*
X007652Y018857D03*
X007742Y018902D03*
X007832Y018947D03*
X007922Y018992D03*
X008012Y019037D03*
X008102Y019082D03*
X008192Y019127D03*
X008282Y019172D03*
X008372Y019217D03*
X008651Y019352D03*
X008741Y019397D03*
X008831Y019442D03*
X008921Y019487D03*
X009011Y019532D03*
X009101Y019577D03*
X009191Y019622D03*
X003863Y016967D03*
D69*
X004686Y016859D03*
X005055Y016283D03*
X004101Y015806D03*
X003705Y015608D03*
X002670Y015446D03*
X007926Y018380D03*
X008241Y018290D03*
X009033Y018263D03*
X009609Y018551D03*
X010032Y019523D03*
X011517Y019856D03*
X009006Y020693D03*
D70*
X009119Y020801D03*
X010370Y020279D03*
X010415Y019586D03*
X010406Y018344D03*
X007940Y018155D03*
X007922Y018056D03*
X006617Y016805D03*
X005519Y016931D03*
X004376Y016625D03*
X003719Y015968D03*
X003404Y015464D03*
X003413Y015455D03*
X003422Y015446D03*
X003404Y016670D03*
X003413Y016679D03*
X003422Y016688D03*
D71*
X004677Y016850D03*
X005037Y016724D03*
X005046Y016733D03*
X005352Y016859D03*
X005964Y016769D03*
X006684Y017624D03*
X007944Y017840D03*
X008232Y018281D03*
X007917Y018371D03*
X008700Y018560D03*
X008925Y018731D03*
X004569Y016049D03*
X004110Y015815D03*
X002679Y015455D03*
D72*
X002684Y015464D03*
X003719Y015626D03*
X004115Y015824D03*
X005069Y016301D03*
X005069Y016760D03*
X005366Y016886D03*
X005852Y017183D03*
X006671Y017120D03*
X004673Y016841D03*
X003296Y017354D03*
X003053Y017849D03*
X008723Y018578D03*
X009047Y018281D03*
X009623Y018569D03*
X010019Y019505D03*
X011531Y019874D03*
X009020Y020711D03*
D73*
X009029Y020720D03*
X009272Y020225D03*
X009056Y018290D03*
X008219Y018263D03*
X007904Y018353D03*
X007958Y017858D03*
X007004Y017768D03*
X005834Y017156D03*
X006140Y016850D03*
X005708Y016625D03*
X004124Y015833D03*
X002693Y015473D03*
D74*
X003390Y015473D03*
X004056Y016049D03*
X005199Y016769D03*
X005523Y016940D03*
X006486Y017075D03*
X008898Y018641D03*
X010419Y018353D03*
X010446Y018380D03*
X010446Y019559D03*
X010599Y020783D03*
D75*
X007967Y017867D03*
X006977Y017732D03*
X002702Y015482D03*
D76*
X003386Y015482D03*
X003386Y016652D03*
X005204Y016787D03*
D77*
X005721Y016643D03*
X005973Y016778D03*
X006198Y016940D03*
X006198Y016949D03*
X006207Y017021D03*
X005820Y017093D03*
X006342Y017399D03*
X006342Y017408D03*
X006954Y017696D03*
X007971Y017876D03*
X007890Y018335D03*
X009069Y018308D03*
X009879Y018713D03*
X009456Y018866D03*
X009141Y019064D03*
X011544Y019901D03*
X006846Y016913D03*
X004650Y016814D03*
X003606Y016229D03*
X003606Y016220D03*
X003606Y016211D03*
X004137Y015851D03*
X004596Y016085D03*
X002706Y015491D03*
X002607Y015824D03*
X002598Y015878D03*
X002589Y015950D03*
X002589Y015959D03*
X002589Y016211D03*
X002589Y016220D03*
X002040Y016256D03*
X002058Y016400D03*
X002040Y015914D03*
X002040Y015905D03*
X002049Y015824D03*
X002067Y015716D03*
D78*
X003359Y015509D03*
X003368Y015500D03*
X003377Y015491D03*
X003710Y015959D03*
X003368Y016634D03*
X003377Y016643D03*
X003395Y016661D03*
X005204Y016778D03*
X005519Y016949D03*
X005987Y016823D03*
X006023Y017219D03*
X006599Y017516D03*
X007103Y017381D03*
X007931Y018065D03*
X007931Y018146D03*
X009524Y018821D03*
X009803Y019055D03*
X010451Y019550D03*
X010460Y019541D03*
X010640Y020765D03*
X010622Y020774D03*
D79*
X010662Y020756D03*
X010410Y020261D03*
X010482Y019523D03*
X008898Y018650D03*
X010455Y018389D03*
X010464Y018398D03*
X010482Y018416D03*
X006612Y016796D03*
X005523Y016958D03*
X005208Y016796D03*
X004380Y016634D03*
X003822Y016355D03*
X003363Y016625D03*
X003354Y016616D03*
X003336Y016598D03*
X004065Y016058D03*
X003354Y015518D03*
X003336Y015536D03*
D80*
X003345Y015527D03*
X003345Y016607D03*
X009366Y019127D03*
X010473Y019532D03*
X010473Y018407D03*
X009105Y020792D03*
D81*
X010487Y019514D03*
X008903Y018659D03*
X010487Y018425D03*
X006797Y017129D03*
X006482Y017066D03*
X006023Y017228D03*
X005888Y017048D03*
X005213Y016814D03*
X005213Y016805D03*
X003332Y016589D03*
X003323Y015554D03*
X003332Y015545D03*
D82*
X003318Y015563D03*
X003300Y015581D03*
X003300Y016553D03*
X003318Y016571D03*
X003318Y016580D03*
X004389Y016643D03*
X005217Y016823D03*
X005523Y016976D03*
X005982Y016814D03*
X007935Y018074D03*
X009231Y018758D03*
X010518Y018461D03*
X010527Y018470D03*
X010536Y019451D03*
X010527Y019460D03*
X010518Y019469D03*
X010518Y019478D03*
X010455Y020243D03*
X010698Y020738D03*
X010716Y020729D03*
X009348Y020288D03*
D83*
X010680Y020747D03*
X010509Y019487D03*
X010509Y018452D03*
X007926Y018137D03*
X007206Y017822D03*
X007098Y017372D03*
X005523Y016967D03*
X003309Y016562D03*
X003309Y015572D03*
D84*
X003296Y015590D03*
X003287Y015599D03*
X003287Y015608D03*
X003269Y015635D03*
X003692Y015941D03*
X003827Y016364D03*
X003296Y016544D03*
X003287Y016535D03*
X004439Y016553D03*
X004448Y016535D03*
X004466Y016499D03*
X004484Y016463D03*
X004493Y016445D03*
X004511Y016409D03*
X004529Y016373D03*
X004538Y016355D03*
X004556Y016319D03*
X004574Y016283D03*
X004583Y016265D03*
X004601Y016229D03*
X004619Y016193D03*
X005879Y017039D03*
X006797Y017138D03*
X007922Y018128D03*
X008903Y018668D03*
X009524Y018839D03*
X009371Y019136D03*
X009677Y019280D03*
X009713Y019298D03*
X009749Y019316D03*
X009767Y019325D03*
X009803Y019343D03*
X009839Y019361D03*
X009857Y019370D03*
X009893Y019388D03*
X009929Y019406D03*
X009947Y019415D03*
X010559Y019415D03*
X010469Y020234D03*
X009092Y020783D03*
X010541Y018488D03*
X010532Y018479D03*
D85*
X010541Y019442D03*
X009911Y019397D03*
X009821Y019352D03*
X009731Y019307D03*
X005222Y016832D03*
X004502Y016427D03*
X004547Y016337D03*
X004592Y016247D03*
X004457Y016517D03*
X003278Y016517D03*
X003278Y015617D03*
X006608Y016787D03*
D86*
X006432Y017111D03*
X006801Y017156D03*
X005523Y016985D03*
X005226Y016841D03*
X004488Y016454D03*
X004497Y016436D03*
X004506Y016418D03*
X004515Y016400D03*
X004533Y016364D03*
X004542Y016346D03*
X004551Y016328D03*
X004560Y016310D03*
X004578Y016274D03*
X004587Y016256D03*
X004596Y016238D03*
X004605Y016220D03*
X004623Y016184D03*
X004623Y016175D03*
X004632Y016166D03*
X004641Y016148D03*
X004470Y016490D03*
X004461Y016508D03*
X004452Y016526D03*
X004443Y016544D03*
X004425Y016580D03*
X003282Y016526D03*
X003273Y016508D03*
X003264Y016499D03*
X003255Y016481D03*
X003237Y015689D03*
X003246Y015671D03*
X003255Y015653D03*
X003264Y015644D03*
X003273Y015626D03*
X007989Y017984D03*
X007989Y017993D03*
X007980Y018011D03*
X007998Y017975D03*
X007998Y017966D03*
X008007Y017948D03*
X008016Y017939D03*
X007935Y018101D03*
X007926Y018110D03*
X007926Y018119D03*
X007881Y018200D03*
X007881Y018209D03*
X007872Y018218D03*
X007863Y018236D03*
X007863Y018245D03*
X007854Y018254D03*
X007854Y018263D03*
X009222Y018749D03*
X009519Y018848D03*
X009960Y019424D03*
X010563Y019406D03*
X010572Y019388D03*
X010581Y019379D03*
X010590Y019361D03*
X010599Y019343D03*
X010563Y018524D03*
X010554Y018515D03*
X010491Y020225D03*
X010734Y020720D03*
X010752Y020711D03*
D87*
X010523Y020207D03*
X010595Y019352D03*
X008903Y018677D03*
X006023Y017237D03*
X004394Y016652D03*
X003251Y016472D03*
X003224Y016427D03*
X003233Y015707D03*
X003251Y015662D03*
D88*
X003746Y015662D03*
X003602Y016157D03*
X004151Y016562D03*
X004430Y016697D03*
X004520Y016742D03*
X004610Y016787D03*
X005222Y016877D03*
X005726Y016652D03*
X005816Y017057D03*
X006860Y016967D03*
X007724Y018002D03*
X008714Y018137D03*
X009074Y018317D03*
X009884Y018722D03*
X011000Y019757D03*
X010973Y019802D03*
X011423Y020117D03*
X011486Y020027D03*
X011513Y019982D03*
X005096Y016337D03*
X002801Y016832D03*
X002774Y016787D03*
X002297Y017057D03*
X002324Y017102D03*
X002351Y017147D03*
X002270Y017012D03*
D89*
X003242Y016463D03*
X003242Y016454D03*
X003233Y016445D03*
X003233Y016436D03*
X003260Y016490D03*
X004079Y016076D03*
X004637Y016139D03*
X005240Y016850D03*
X005870Y017030D03*
X006644Y017480D03*
X007031Y017426D03*
X007094Y017363D03*
X008012Y017930D03*
X007850Y018281D03*
X009668Y019271D03*
X010586Y019370D03*
X010604Y019334D03*
X010604Y019325D03*
X010613Y019316D03*
X010622Y019298D03*
X010622Y019289D03*
X010631Y019271D03*
X010613Y018614D03*
X010604Y018596D03*
X010595Y018578D03*
X010586Y018569D03*
X010586Y018560D03*
X010577Y018551D03*
X010568Y018533D03*
X010505Y020216D03*
X010784Y020693D03*
X010802Y020684D03*
X009335Y020279D03*
X003206Y015761D03*
X003215Y015743D03*
X003215Y015734D03*
X003224Y015725D03*
X003224Y015716D03*
X003233Y015698D03*
X003242Y015680D03*
D90*
X003642Y016004D03*
X003633Y016031D03*
X003759Y015680D03*
X004155Y015878D03*
X004416Y016679D03*
X004947Y016679D03*
X004947Y016670D03*
X005217Y016859D03*
X005271Y016760D03*
X005595Y016913D03*
X005847Y016940D03*
X005847Y016949D03*
X006126Y017156D03*
X006342Y017273D03*
X006855Y017048D03*
X006855Y017039D03*
X007089Y017345D03*
X006954Y017588D03*
X007872Y018308D03*
X008727Y018155D03*
X009087Y018335D03*
X009663Y018623D03*
X009897Y018740D03*
X009474Y018938D03*
X009384Y019154D03*
X009087Y019019D03*
X009978Y019451D03*
X010734Y020063D03*
X010743Y020054D03*
X010752Y020045D03*
X011085Y020486D03*
X011076Y020495D03*
X011067Y020504D03*
X009312Y020261D03*
X003264Y017291D03*
X003102Y017165D03*
X003093Y017156D03*
X003066Y017138D03*
X003057Y017129D03*
X003048Y017120D03*
X003039Y017111D03*
X002697Y017543D03*
X002715Y017561D03*
X002724Y017570D03*
X006603Y016769D03*
D91*
X006527Y016859D03*
X006518Y016868D03*
X006365Y017201D03*
X006365Y017210D03*
X006356Y017219D03*
X006356Y017228D03*
X006833Y017111D03*
X006842Y017093D03*
X006842Y017084D03*
X007094Y017354D03*
X006986Y017498D03*
X006977Y017516D03*
X006977Y017525D03*
X006626Y017543D03*
X007238Y017831D03*
X008579Y018479D03*
X008579Y018488D03*
X008588Y018461D03*
X008597Y018443D03*
X008606Y018425D03*
X008624Y018389D03*
X008633Y018371D03*
X008642Y018353D03*
X008651Y018335D03*
X008669Y018299D03*
X008678Y018281D03*
X008687Y018263D03*
X008696Y018245D03*
X008714Y018209D03*
X008723Y018191D03*
X008732Y018173D03*
X009092Y018353D03*
X009083Y018371D03*
X009074Y018389D03*
X009056Y018425D03*
X009047Y018443D03*
X009038Y018461D03*
X009029Y018479D03*
X009011Y018515D03*
X009002Y018533D03*
X008993Y018551D03*
X008984Y018569D03*
X008975Y018578D03*
X009227Y018704D03*
X009236Y018686D03*
X009245Y018668D03*
X009254Y018650D03*
X009272Y018614D03*
X009281Y018596D03*
X009290Y018578D03*
X009299Y018560D03*
X009614Y018740D03*
X009623Y018731D03*
X009632Y018713D03*
X009632Y018704D03*
X009641Y018695D03*
X009641Y018686D03*
X009650Y018668D03*
X009659Y018659D03*
X009659Y018650D03*
X009470Y018974D03*
X009470Y018983D03*
X009776Y019019D03*
X009164Y018830D03*
X009155Y018839D03*
X009155Y018848D03*
X009146Y018866D03*
X009137Y018875D03*
X009137Y018884D03*
X009128Y018893D03*
X009119Y018911D03*
X009119Y018920D03*
X009110Y018929D03*
X009110Y018938D03*
X009101Y018956D03*
X009092Y018965D03*
X009092Y018974D03*
X009083Y018983D03*
X009074Y019001D03*
X010613Y020153D03*
X010622Y020144D03*
X010640Y020135D03*
X010946Y020594D03*
X009326Y020270D03*
X003188Y017228D03*
X003179Y017219D03*
X002873Y017678D03*
X002855Y017669D03*
X002846Y017660D03*
X003908Y016319D03*
X003917Y016310D03*
X003962Y016265D03*
X003971Y016256D03*
X003989Y016238D03*
X003989Y016229D03*
X003998Y016220D03*
X004007Y016211D03*
X004016Y016193D03*
X004025Y016184D03*
X004034Y016166D03*
X003683Y015905D03*
X003683Y015896D03*
X003674Y015914D03*
X003764Y015689D03*
X005978Y016796D03*
D92*
X005861Y017021D03*
X005528Y017003D03*
X006401Y017138D03*
X006536Y016850D03*
X006797Y017183D03*
X006653Y017471D03*
X006626Y017525D03*
X006626Y017534D03*
X007013Y017453D03*
X007859Y018290D03*
X009218Y018740D03*
X009461Y019010D03*
X009452Y019028D03*
X009443Y019055D03*
X009380Y019145D03*
X009965Y019433D03*
X010658Y019190D03*
X010658Y019181D03*
X010667Y019163D03*
X010667Y019154D03*
X010667Y019145D03*
X010676Y019118D03*
X010676Y019109D03*
X010676Y019100D03*
X010685Y019073D03*
X010685Y019064D03*
X010685Y019055D03*
X010685Y019046D03*
X010685Y018875D03*
X010685Y018866D03*
X010676Y018803D03*
X010676Y018794D03*
X010667Y018776D03*
X010667Y018758D03*
X010658Y018740D03*
X010658Y018731D03*
X010649Y018713D03*
X010649Y018704D03*
X010640Y018686D03*
X010631Y018659D03*
X010586Y020171D03*
X010568Y020180D03*
X010865Y020648D03*
X010892Y020630D03*
X009830Y021008D03*
X009083Y020774D03*
X003233Y017255D03*
X002972Y017741D03*
X003008Y017768D03*
X004403Y016661D03*
X003827Y016373D03*
X003197Y016364D03*
X003197Y016355D03*
X003188Y016328D03*
X003179Y016319D03*
X003179Y016310D03*
X003179Y016301D03*
X003170Y016283D03*
X003170Y016274D03*
X003170Y016265D03*
X003161Y016238D03*
X003161Y016229D03*
X003152Y016184D03*
X003152Y016175D03*
X003152Y015986D03*
X003152Y015968D03*
X003152Y015959D03*
X003152Y015950D03*
X003161Y015923D03*
X003161Y015914D03*
X003161Y015905D03*
X003161Y015896D03*
X003170Y015878D03*
X003170Y015869D03*
X003170Y015860D03*
X003179Y015851D03*
X003179Y015833D03*
X003188Y015815D03*
X003188Y015806D03*
X003710Y015833D03*
X003719Y015815D03*
X003719Y015806D03*
X003728Y015788D03*
X003737Y015779D03*
X003737Y015770D03*
X003746Y015761D03*
X003755Y015734D03*
X003764Y015716D03*
X003773Y015698D03*
X004169Y015896D03*
X004169Y015905D03*
X004079Y016085D03*
X004079Y016094D03*
X004070Y016103D03*
X004061Y016121D03*
D93*
X004137Y015977D03*
X003687Y015932D03*
X003768Y015707D03*
X003192Y015797D03*
X009591Y018767D03*
X010617Y018632D03*
X010662Y019172D03*
X010617Y019307D03*
D94*
X010635Y019253D03*
X010644Y019244D03*
X010644Y019235D03*
X010644Y019226D03*
X010644Y018695D03*
X010635Y018668D03*
X009780Y019028D03*
X009429Y019073D03*
X010554Y020189D03*
X010815Y020675D03*
X006414Y017120D03*
X006405Y017129D03*
X006549Y016841D03*
X004164Y015923D03*
X004164Y015914D03*
X004155Y015941D03*
X004119Y016004D03*
X004119Y016013D03*
X003750Y015743D03*
X003759Y015725D03*
X003210Y016391D03*
X003210Y016400D03*
X003219Y016409D03*
X003219Y016418D03*
X002985Y017750D03*
D95*
X004155Y015932D03*
X003210Y015752D03*
X010599Y018587D03*
X010635Y019262D03*
D96*
X010649Y019217D03*
X010676Y019127D03*
X010685Y019037D03*
X010685Y018857D03*
X010676Y018812D03*
X010667Y018767D03*
X010658Y018722D03*
X010640Y018677D03*
X009515Y018857D03*
X009452Y019037D03*
X009830Y019937D03*
X010847Y020657D03*
X007004Y017462D03*
X006797Y017192D03*
X006662Y017462D03*
X006392Y017147D03*
X003728Y015797D03*
X003746Y015752D03*
X003179Y015842D03*
X003170Y015887D03*
X003152Y015977D03*
X003179Y016292D03*
X003188Y016337D03*
X003206Y016382D03*
X002954Y017732D03*
D97*
X003003Y017759D03*
X003246Y017264D03*
X003201Y016373D03*
X003192Y016346D03*
X003183Y015824D03*
X003192Y015788D03*
X003201Y015779D03*
X003201Y015770D03*
X004128Y015986D03*
X004128Y015995D03*
X004137Y015968D03*
X004146Y015959D03*
X004146Y015950D03*
X005523Y016994D03*
X005982Y016805D03*
X006801Y017165D03*
X006801Y017174D03*
X007026Y017435D03*
X007017Y017444D03*
X009447Y019046D03*
X009438Y019064D03*
X010626Y019280D03*
X010653Y019208D03*
X010653Y019199D03*
X010626Y018650D03*
X010626Y018641D03*
X010617Y018623D03*
X010608Y018605D03*
X010536Y020198D03*
X010833Y020666D03*
D98*
X009825Y019910D03*
X009249Y019649D03*
X008610Y019334D03*
X008574Y019316D03*
X008520Y019289D03*
X008484Y019271D03*
X008430Y019244D03*
X005955Y018011D03*
X005919Y017993D03*
X005865Y017966D03*
X005829Y017948D03*
X005775Y017921D03*
X005739Y017903D03*
X005145Y017606D03*
X005109Y017588D03*
X005055Y017561D03*
X005829Y016004D03*
X005919Y016049D03*
X006009Y016094D03*
X005379Y015779D03*
D99*
X004056Y016130D03*
X004029Y016175D03*
X003894Y016328D03*
X003678Y015923D03*
X003696Y015869D03*
X003696Y015860D03*
X003705Y015851D03*
X003714Y015824D03*
X003156Y015941D03*
X003156Y016193D03*
X003156Y016211D03*
X003156Y016220D03*
X003165Y016256D03*
X003219Y017246D03*
X003255Y017273D03*
X002940Y017723D03*
X002913Y017705D03*
X002895Y017696D03*
X006369Y017183D03*
X006378Y017174D03*
X006378Y017165D03*
X006720Y017345D03*
X006720Y017354D03*
X006711Y017363D03*
X006729Y017336D03*
X006738Y017318D03*
X006738Y017309D03*
X006756Y017273D03*
X006765Y017264D03*
X006765Y017255D03*
X006774Y017246D03*
X006783Y017228D03*
X006783Y017219D03*
X006828Y017120D03*
X006693Y017399D03*
X006693Y017408D03*
X006684Y017426D03*
X006675Y017435D03*
X006675Y017444D03*
X006666Y017453D03*
X006990Y017489D03*
X006999Y017480D03*
X006999Y017471D03*
X007251Y017786D03*
X006603Y016778D03*
X009339Y018470D03*
X009339Y018479D03*
X009330Y018488D03*
X009321Y018506D03*
X009321Y018515D03*
X009303Y018551D03*
X009294Y018569D03*
X009276Y018605D03*
X009258Y018641D03*
X009249Y018659D03*
X009231Y018695D03*
X009213Y018731D03*
X009168Y018821D03*
X009465Y019001D03*
X009456Y019019D03*
X009600Y018758D03*
X009609Y018749D03*
X010671Y018785D03*
X010680Y018821D03*
X010680Y018830D03*
X010680Y018839D03*
X010680Y018848D03*
X010689Y018884D03*
X010689Y018893D03*
X010689Y018911D03*
X010689Y018920D03*
X010689Y018929D03*
X010689Y018938D03*
X010689Y018956D03*
X010689Y018965D03*
X010689Y018974D03*
X010689Y018983D03*
X010689Y019001D03*
X010689Y019010D03*
X010689Y019019D03*
X010689Y019028D03*
X010680Y019091D03*
X010671Y019136D03*
X010905Y020621D03*
X010878Y020639D03*
D100*
X010599Y020162D03*
X010680Y019082D03*
X010689Y018992D03*
X010689Y018947D03*
X010689Y018902D03*
X009654Y019262D03*
X009465Y018992D03*
X009240Y018677D03*
X009285Y018587D03*
X009330Y018497D03*
X008970Y018587D03*
X008574Y018497D03*
X006981Y017507D03*
X006711Y017372D03*
X006729Y017327D03*
X006756Y017282D03*
X006774Y017237D03*
X006684Y017417D03*
X006369Y017192D03*
X004065Y016112D03*
X004038Y016157D03*
X004011Y016202D03*
X003705Y015842D03*
X003156Y015932D03*
X003156Y016202D03*
X003165Y016247D03*
X003201Y017237D03*
D101*
X004128Y015842D03*
X006828Y016877D03*
X007089Y017327D03*
X008925Y018722D03*
X009636Y018587D03*
X010005Y019487D03*
X011544Y019892D03*
D102*
X011540Y019928D03*
X011531Y019946D03*
X011522Y019964D03*
X011513Y019973D03*
X011504Y019991D03*
X011495Y020009D03*
X011486Y020018D03*
X011477Y020036D03*
X011468Y020045D03*
X011468Y020054D03*
X011459Y020063D03*
X011450Y020081D03*
X011441Y020090D03*
X011432Y020108D03*
X011405Y020144D03*
X011378Y020180D03*
X010946Y019838D03*
X010964Y019811D03*
X010982Y019784D03*
X010991Y019775D03*
X011000Y019766D03*
X011009Y019748D03*
X011018Y019730D03*
X011027Y019721D03*
X011036Y019703D03*
X011045Y019685D03*
X009992Y019469D03*
X009470Y018893D03*
X009650Y018605D03*
X008921Y018713D03*
X007886Y018326D03*
X007742Y018011D03*
X007706Y017993D03*
X007688Y017984D03*
X007670Y017975D03*
X006950Y017660D03*
X006950Y017651D03*
X006329Y017363D03*
X006329Y017354D03*
X006473Y017030D03*
X006194Y016994D03*
X006194Y016985D03*
X006860Y016958D03*
X004646Y016805D03*
X004628Y016796D03*
X004592Y016778D03*
X004574Y016769D03*
X004556Y016760D03*
X004538Y016751D03*
X004502Y016733D03*
X004484Y016724D03*
X004466Y016715D03*
X004448Y016706D03*
X004187Y016580D03*
X004169Y016571D03*
X004133Y016553D03*
X004115Y016544D03*
X003602Y016148D03*
X003845Y015986D03*
X003863Y015995D03*
X003881Y016004D03*
X003899Y016013D03*
X004142Y015860D03*
X002756Y016751D03*
X002765Y016769D03*
X002783Y016796D03*
X002783Y016805D03*
X002792Y016814D03*
X002801Y016823D03*
X002810Y016841D03*
X002819Y016859D03*
X002828Y016868D03*
X002837Y016886D03*
X002846Y016895D03*
X002387Y017201D03*
X002405Y017228D03*
X002369Y017174D03*
X002360Y017165D03*
X002342Y017138D03*
X002342Y017129D03*
X002333Y017120D03*
X002324Y017111D03*
X002315Y017093D03*
X002306Y017075D03*
X002297Y017066D03*
X002288Y017048D03*
X002279Y017030D03*
X002261Y016994D03*
X003278Y017318D03*
D103*
X002936Y017003D03*
X002927Y016994D03*
X002918Y016985D03*
X002909Y016976D03*
X002477Y017318D03*
X002468Y017309D03*
X002504Y017354D03*
X002513Y017363D03*
X002531Y017381D03*
X002540Y017390D03*
X002549Y017399D03*
X002558Y017408D03*
X003827Y016391D03*
X003611Y016103D03*
X004151Y015869D03*
X004610Y016103D03*
X004421Y016688D03*
X004961Y016715D03*
X005222Y016868D03*
X005636Y016859D03*
X005645Y016841D03*
X005654Y016823D03*
X005663Y016805D03*
X005681Y016769D03*
X005690Y016751D03*
X005699Y016733D03*
X005708Y016715D03*
X005726Y016679D03*
X005735Y016661D03*
X006329Y017336D03*
X006950Y017624D03*
X006950Y017633D03*
X007382Y017480D03*
X007985Y017894D03*
X008615Y018533D03*
X009083Y018326D03*
X009893Y018731D03*
X009470Y018911D03*
X010874Y019928D03*
X010883Y019919D03*
X010856Y019946D03*
X010847Y019955D03*
X010838Y019964D03*
X010910Y019883D03*
X010919Y019874D03*
X011342Y020225D03*
X011351Y020216D03*
X011315Y020261D03*
X011306Y020270D03*
X011297Y020279D03*
X011288Y020288D03*
X006860Y016994D03*
X006860Y016985D03*
D104*
X006792Y017201D03*
X006792Y017210D03*
X006747Y017291D03*
X006747Y017300D03*
X006702Y017381D03*
X006702Y017390D03*
X006387Y017156D03*
X006477Y017048D03*
X006027Y017246D03*
X004632Y016130D03*
X004047Y016139D03*
X004047Y016148D03*
X003687Y015878D03*
X003147Y015995D03*
X003147Y016004D03*
X003147Y016013D03*
X003147Y016031D03*
X003147Y016040D03*
X003147Y016049D03*
X003147Y016058D03*
X003147Y016076D03*
X003147Y016085D03*
X003147Y016094D03*
X003147Y016103D03*
X003147Y016121D03*
X003147Y016130D03*
X003147Y016139D03*
X003147Y016148D03*
X003147Y016166D03*
X002922Y017714D03*
X008007Y017921D03*
X008907Y018686D03*
X009222Y018713D03*
X009267Y018623D03*
X009312Y018533D03*
X009312Y018524D03*
X010662Y018749D03*
X010932Y020603D03*
D105*
X009177Y018812D03*
X003687Y015887D03*
X003147Y016022D03*
X003147Y016067D03*
X003147Y016112D03*
X003147Y016157D03*
D106*
X003939Y016292D03*
X004164Y015887D03*
X005883Y016877D03*
X006099Y017192D03*
X006351Y017237D03*
X006513Y016877D03*
X006963Y017552D03*
X007287Y017732D03*
X007314Y017687D03*
X007332Y017642D03*
X007359Y017597D03*
X007377Y017552D03*
X007404Y017507D03*
X007998Y017912D03*
X008682Y018272D03*
X008637Y018362D03*
X008592Y018452D03*
X008727Y018182D03*
X009087Y018362D03*
X009042Y018452D03*
X008997Y018542D03*
X010662Y020117D03*
X010986Y020567D03*
X003138Y017192D03*
X002823Y017642D03*
D107*
X003701Y015950D03*
X009524Y018830D03*
X009794Y019046D03*
X010496Y019505D03*
X010505Y019496D03*
X010505Y018443D03*
X010496Y018434D03*
D108*
X010374Y019622D03*
X007917Y018047D03*
X003723Y015977D03*
D109*
X003647Y015986D03*
X003647Y015995D03*
X003638Y016013D03*
X004943Y016688D03*
X005528Y017021D03*
X005843Y017003D03*
X005852Y016931D03*
X006113Y017174D03*
X006122Y017165D03*
X006347Y017255D03*
X006347Y017264D03*
X007238Y017849D03*
X008597Y018515D03*
X008912Y018695D03*
X009722Y019100D03*
X009722Y019109D03*
X009713Y019118D03*
X009677Y019190D03*
X009677Y019199D03*
X009668Y019208D03*
X009947Y019100D03*
X009983Y019118D03*
X010037Y019145D03*
X009812Y018929D03*
X009812Y018920D03*
X009803Y018938D03*
X009848Y018848D03*
X009857Y018839D03*
X009857Y018830D03*
X009893Y018758D03*
X009902Y018749D03*
X010712Y020081D03*
X010703Y020090D03*
X011018Y020540D03*
X003017Y017786D03*
X002783Y017615D03*
X002747Y017588D03*
X002738Y017579D03*
D110*
X002760Y017597D03*
X002706Y017552D03*
X003084Y017147D03*
X003633Y016022D03*
X005856Y016922D03*
X005838Y016967D03*
X006342Y017282D03*
X006954Y017597D03*
X009474Y018947D03*
X010725Y020072D03*
X011094Y020477D03*
D111*
X004038Y016022D03*
D112*
X005865Y016022D03*
X005955Y016067D03*
D113*
X005402Y016508D03*
X005276Y016751D03*
X004952Y016706D03*
X004952Y016661D03*
X004961Y016634D03*
X004979Y016598D03*
X004988Y016580D03*
X005006Y016544D03*
X005024Y016508D03*
X005033Y016490D03*
X005051Y016454D03*
X005069Y016418D03*
X005078Y016400D03*
X005096Y016364D03*
X005609Y016904D03*
X005834Y016976D03*
X005834Y016985D03*
X005834Y016994D03*
X005843Y016958D03*
X006032Y017255D03*
X006338Y017291D03*
X006338Y017300D03*
X006473Y017039D03*
X006509Y016895D03*
X007391Y017489D03*
X007994Y017903D03*
X008606Y018524D03*
X009479Y018929D03*
X010046Y019154D03*
X010802Y020000D03*
X010793Y020009D03*
X010784Y020018D03*
X010766Y020036D03*
X011126Y020450D03*
X011117Y020459D03*
X011108Y020468D03*
X011171Y020414D03*
X011189Y020396D03*
X003269Y017300D03*
X003017Y017093D03*
X003008Y017084D03*
X002648Y017498D03*
X002666Y017516D03*
X002684Y017534D03*
X003629Y016049D03*
X003629Y016040D03*
D114*
X004565Y016040D03*
X007940Y017831D03*
X010100Y019226D03*
D115*
X010086Y019208D03*
X009285Y018398D03*
X008709Y018569D03*
X007953Y017849D03*
X006594Y016751D03*
X005694Y016616D03*
X005055Y016751D03*
X004974Y016751D03*
X004578Y016058D03*
D116*
X005064Y016427D03*
X005019Y016517D03*
X004974Y016607D03*
X005307Y016697D03*
X005334Y016652D03*
X005352Y016607D03*
X005379Y016562D03*
X005397Y016517D03*
X005694Y016742D03*
X005649Y016832D03*
X005973Y016787D03*
X003624Y016067D03*
X002940Y017012D03*
X002985Y017057D03*
X002607Y017462D03*
X002562Y017417D03*
X010824Y019982D03*
X011238Y020342D03*
X011193Y020387D03*
X011148Y020432D03*
D117*
X004070Y016067D03*
D118*
X004583Y016067D03*
X004664Y016832D03*
X007274Y017417D03*
X008732Y018587D03*
D119*
X009299Y018416D03*
X009866Y018704D03*
X010073Y019190D03*
X006986Y017750D03*
X006977Y017741D03*
X006419Y017480D03*
X006374Y017453D03*
X006356Y017435D03*
X006176Y016886D03*
X006122Y016841D03*
X004961Y016733D03*
X004592Y016076D03*
X003674Y016328D03*
X003044Y017831D03*
D120*
X002522Y017372D03*
X002486Y017327D03*
X002900Y016967D03*
X003611Y016112D03*
X005627Y016877D03*
X005672Y016787D03*
X005717Y016697D03*
X006329Y017327D03*
X006950Y017642D03*
X007877Y018317D03*
X009470Y018902D03*
X010865Y019937D03*
X011279Y020297D03*
D121*
X009326Y018452D03*
X005087Y016382D03*
X005042Y016472D03*
X004997Y016562D03*
X004952Y016652D03*
X004619Y016112D03*
X003026Y017102D03*
X002657Y017507D03*
D122*
X002463Y017300D03*
X002436Y017273D03*
X002436Y017264D03*
X002427Y017255D03*
X002418Y017246D03*
X002391Y017210D03*
X002373Y017183D03*
X002868Y016931D03*
X002877Y016940D03*
X002886Y016949D03*
X003273Y017309D03*
X003606Y016139D03*
X003606Y016130D03*
X003606Y016121D03*
X005397Y016490D03*
X006117Y017129D03*
X006333Y017345D03*
X006648Y017570D03*
X007368Y017471D03*
X006513Y016904D03*
X008142Y018209D03*
X008196Y018236D03*
X009321Y018443D03*
X010977Y019793D03*
X010932Y019856D03*
X010923Y019865D03*
X010896Y019901D03*
X010887Y019910D03*
X011418Y020126D03*
X011436Y020099D03*
X011382Y020171D03*
X011373Y020189D03*
X011337Y020234D03*
X011328Y020243D03*
D123*
X011031Y020531D03*
X010995Y020558D03*
X010968Y020576D03*
X010959Y020585D03*
X010653Y020126D03*
X009654Y019253D03*
X009654Y019244D03*
X009771Y019010D03*
X009474Y018965D03*
X009474Y018956D03*
X009663Y018641D03*
X009078Y018380D03*
X009069Y018398D03*
X009060Y018416D03*
X009051Y018434D03*
X009033Y018470D03*
X009024Y018488D03*
X009015Y018506D03*
X009006Y018524D03*
X008988Y018560D03*
X009096Y018344D03*
X008736Y018164D03*
X008718Y018200D03*
X008709Y018218D03*
X008700Y018236D03*
X008691Y018254D03*
X008673Y018290D03*
X008664Y018308D03*
X008655Y018326D03*
X008646Y018344D03*
X008628Y018380D03*
X008619Y018398D03*
X008610Y018416D03*
X008601Y018434D03*
X008583Y018470D03*
X008583Y018506D03*
X009078Y019010D03*
X007863Y018299D03*
X007233Y017840D03*
X007269Y017768D03*
X007278Y017759D03*
X007278Y017750D03*
X007287Y017741D03*
X007296Y017723D03*
X007296Y017714D03*
X007305Y017705D03*
X007305Y017696D03*
X007314Y017678D03*
X007323Y017669D03*
X007323Y017660D03*
X007332Y017651D03*
X007341Y017633D03*
X007341Y017624D03*
X007350Y017615D03*
X007350Y017606D03*
X007359Y017588D03*
X007368Y017579D03*
X007368Y017570D03*
X007377Y017561D03*
X007386Y017543D03*
X007386Y017534D03*
X007395Y017525D03*
X007395Y017516D03*
X006972Y017534D03*
X006972Y017543D03*
X006963Y017561D03*
X006846Y017075D03*
X006504Y016886D03*
X006351Y017246D03*
X006090Y017201D03*
X005865Y016904D03*
X005874Y016886D03*
X005892Y016868D03*
X005901Y016859D03*
X005910Y016850D03*
X005919Y016841D03*
X004623Y016121D03*
X003957Y016274D03*
X003948Y016283D03*
X003930Y016301D03*
X004407Y016670D03*
X003165Y017210D03*
X003147Y017201D03*
X002832Y017651D03*
X002805Y017633D03*
X002796Y017624D03*
X009069Y020765D03*
D124*
X010770Y020702D03*
X010572Y019397D03*
X009789Y019037D03*
X009420Y019082D03*
X010545Y018497D03*
X010572Y018542D03*
X008007Y017957D03*
X007980Y018002D03*
X007935Y018092D03*
X007872Y018227D03*
X007845Y018272D03*
X007044Y017417D03*
X006801Y017147D03*
X006477Y017057D03*
X004614Y016202D03*
X004632Y016157D03*
X004569Y016292D03*
X004524Y016382D03*
X004479Y016472D03*
X004434Y016562D03*
D125*
X004430Y016571D03*
X004475Y016481D03*
X004520Y016391D03*
X004565Y016301D03*
X004610Y016211D03*
X007940Y018083D03*
X009695Y019289D03*
X009785Y019334D03*
X009875Y019379D03*
X010550Y019424D03*
X010550Y019433D03*
X010550Y018506D03*
D126*
X010064Y019181D03*
X009155Y019073D03*
X008210Y018254D03*
X007265Y017885D03*
X006959Y017705D03*
X005816Y017111D03*
X006194Y016931D03*
X006779Y016841D03*
X003611Y016238D03*
D127*
X003611Y016247D03*
X005384Y016472D03*
X006194Y016922D03*
X005816Y017102D03*
X008606Y018542D03*
D128*
X008615Y018407D03*
X008660Y018317D03*
X008705Y018227D03*
X009065Y018407D03*
X009020Y018497D03*
X009263Y018632D03*
X009308Y018542D03*
X009218Y018722D03*
X009146Y018857D03*
X009128Y018902D03*
X009101Y018947D03*
X009083Y018992D03*
X009623Y018722D03*
X009650Y018677D03*
X009668Y018632D03*
X009974Y019442D03*
X010919Y020612D03*
X007265Y017777D03*
X006833Y017102D03*
X005852Y017012D03*
X005528Y017012D03*
X003980Y016247D03*
X003260Y017282D03*
X002882Y017687D03*
X003008Y017777D03*
D129*
X003620Y016274D03*
X005825Y017129D03*
X005825Y017138D03*
X006185Y016904D03*
X006185Y016895D03*
X006365Y017444D03*
D130*
X006387Y017462D03*
X006666Y017597D03*
X007017Y017777D03*
X005829Y017147D03*
X006171Y016877D03*
X004092Y016517D03*
X003633Y016292D03*
D131*
X002049Y016337D03*
X003282Y017327D03*
X003039Y017822D03*
X006954Y017687D03*
D132*
X003818Y016337D03*
X010316Y020297D03*
D133*
X009807Y019064D03*
X009357Y019118D03*
X010401Y018335D03*
X007188Y017804D03*
X007107Y017390D03*
X006486Y017084D03*
X006018Y017210D03*
X003822Y016346D03*
D134*
X003827Y016382D03*
X004943Y016697D03*
X009713Y019127D03*
X009668Y019217D03*
X009803Y018947D03*
X009848Y018857D03*
X009893Y018767D03*
D135*
X009308Y018425D03*
X007337Y017444D03*
X006662Y017588D03*
X005537Y017048D03*
X005222Y016886D03*
X004952Y016724D03*
X004097Y016526D03*
X003827Y016400D03*
X006833Y016886D03*
X006842Y016904D03*
D136*
X006860Y017021D03*
X006860Y017030D03*
X006950Y017606D03*
X004970Y016616D03*
X005015Y016526D03*
X005060Y016436D03*
X002675Y017525D03*
X009065Y020756D03*
X011135Y020441D03*
X011180Y020405D03*
D137*
X011027Y019613D03*
X008633Y018578D03*
X007292Y017921D03*
X006248Y017066D03*
X005357Y016436D03*
D138*
X005366Y016445D03*
X005357Y016868D03*
X006545Y016949D03*
X006680Y017615D03*
X007634Y017930D03*
X008624Y018569D03*
X008696Y018551D03*
X009614Y018560D03*
X009587Y018866D03*
X010028Y019514D03*
X011522Y019865D03*
X004079Y016499D03*
X003305Y017363D03*
X003062Y017858D03*
D139*
X005370Y016895D03*
X005874Y017201D03*
X006234Y017048D03*
X006540Y016940D03*
X006675Y017606D03*
X005370Y016454D03*
X008619Y018560D03*
X011040Y019631D03*
D140*
X011018Y019604D03*
X009839Y018668D03*
X009272Y018380D03*
X008669Y018083D03*
X006689Y017633D03*
X006257Y017075D03*
X005681Y016598D03*
X004988Y016769D03*
X009254Y020198D03*
D141*
X004362Y016607D03*
D142*
X005685Y016607D03*
X008673Y018092D03*
X009042Y018272D03*
X008691Y018542D03*
X009258Y020207D03*
X009015Y020702D03*
D143*
X009519Y018812D03*
X003435Y016697D03*
D144*
X003444Y016706D03*
X009834Y020450D03*
D145*
X003485Y016742D03*
D146*
X004965Y016742D03*
X009294Y018407D03*
D147*
X010775Y020027D03*
X006860Y017012D03*
X005285Y016742D03*
D148*
X006572Y017489D03*
X007112Y017408D03*
X003512Y016760D03*
D149*
X003552Y016787D03*
X010302Y019667D03*
D150*
X009830Y019919D03*
X010217Y018209D03*
X003611Y016823D03*
D151*
X003624Y016832D03*
D152*
X005991Y016832D03*
X009366Y020297D03*
D153*
X009218Y020837D03*
X007958Y018182D03*
X006626Y016832D03*
D154*
X003656Y016850D03*
X003638Y016841D03*
X010379Y020855D03*
D155*
X011364Y020198D03*
X011400Y020153D03*
X011409Y020135D03*
X010959Y019820D03*
X010950Y019829D03*
X010050Y019163D03*
X008160Y018218D03*
X008124Y018200D03*
X007089Y017336D03*
X006864Y016976D03*
X006189Y017003D03*
X003030Y017804D03*
X002499Y017345D03*
X002490Y017336D03*
X002454Y017291D03*
X002400Y017219D03*
X002355Y017156D03*
X002814Y016850D03*
X002850Y016904D03*
X002859Y016913D03*
X002895Y016958D03*
D156*
X003669Y016859D03*
X010158Y018173D03*
X009834Y020441D03*
D157*
X010208Y020324D03*
X010127Y018155D03*
X003683Y016868D03*
D158*
X002868Y016922D03*
X002832Y016877D03*
X002382Y017192D03*
X007251Y017867D03*
X008178Y018227D03*
X010941Y019847D03*
X011391Y020162D03*
X009303Y020252D03*
X009051Y020747D03*
D159*
X003701Y016877D03*
D160*
X005361Y016877D03*
X006243Y017057D03*
X011031Y019622D03*
D161*
X010343Y020864D03*
X009326Y020864D03*
X010082Y018128D03*
X010064Y018119D03*
X003764Y016913D03*
X003746Y016904D03*
X003728Y016895D03*
D162*
X003125Y017183D03*
X003116Y017174D03*
X002774Y017606D03*
X005861Y016913D03*
X005870Y016895D03*
X006104Y017183D03*
X006851Y017066D03*
X006959Y017570D03*
X006959Y017579D03*
X007400Y017498D03*
X009335Y018461D03*
X009884Y018776D03*
X009884Y018785D03*
X009875Y018794D03*
X009875Y018803D03*
X009866Y018821D03*
X009839Y018866D03*
X009839Y018875D03*
X009830Y018884D03*
X009830Y018893D03*
X009821Y018911D03*
X009794Y018956D03*
X009794Y018965D03*
X009785Y018974D03*
X009785Y018983D03*
X009776Y019001D03*
X009704Y019136D03*
X009704Y019145D03*
X009695Y019154D03*
X009695Y019163D03*
X009686Y019181D03*
X009659Y019226D03*
X009659Y019235D03*
X009965Y019109D03*
X010019Y019136D03*
X010685Y020099D03*
X010676Y020108D03*
X011009Y020549D03*
X011054Y020513D03*
D163*
X009173Y019082D03*
X007652Y017957D03*
X006347Y017417D03*
X006527Y016922D03*
D164*
X008268Y017219D03*
X008286Y017228D03*
X008340Y017255D03*
X008358Y017264D03*
X008376Y017273D03*
X008430Y017300D03*
X008448Y017309D03*
X008466Y017318D03*
X008520Y017345D03*
X010050Y018110D03*
X003795Y016931D03*
D165*
X005537Y017057D03*
X005861Y017192D03*
X007913Y018362D03*
X008228Y018272D03*
D166*
X009776Y018992D03*
X009821Y018902D03*
X009866Y018812D03*
X010001Y019127D03*
X009686Y019172D03*
X011045Y020522D03*
X006635Y017552D03*
X006851Y017057D03*
X006131Y017147D03*
D167*
X009105Y019037D03*
X010905Y019892D03*
X011319Y020252D03*
X011355Y020207D03*
X011454Y020072D03*
X002445Y017282D03*
X002409Y017237D03*
D168*
X008304Y017237D03*
X008394Y017282D03*
X008484Y017327D03*
X010014Y018092D03*
D169*
X010032Y018101D03*
X008502Y017336D03*
X008412Y017291D03*
X008322Y017246D03*
D170*
X003309Y017372D03*
X003066Y017867D03*
D171*
X006590Y017507D03*
X008894Y018632D03*
X010424Y019577D03*
X010577Y020792D03*
D172*
X009267Y020216D03*
X009852Y018686D03*
X008682Y018101D03*
D173*
X010095Y018137D03*
D174*
X010145Y018164D03*
X010244Y019694D03*
X009461Y020324D03*
D175*
X010172Y018182D03*
D176*
X010190Y018191D03*
X009290Y020855D03*
D177*
X009834Y020999D03*
X010266Y019685D03*
X010203Y018200D03*
D178*
X010230Y018218D03*
X010284Y019676D03*
X010410Y020846D03*
X009249Y020846D03*
D179*
X010248Y018227D03*
D180*
X010275Y018245D03*
X009339Y019091D03*
D181*
X009240Y018767D03*
X010428Y018362D03*
D182*
X009848Y018677D03*
D183*
X009393Y018776D03*
X009384Y018794D03*
D184*
X009389Y018785D03*
D185*
X009380Y018803D03*
D186*
X009402Y019172D03*
D187*
X010091Y019217D03*
D188*
X010334Y019649D03*
X009191Y020828D03*
D189*
X009294Y019667D03*
D190*
X009339Y019685D03*
D191*
X009366Y019694D03*
D192*
X009402Y019703D03*
D193*
X009456Y019712D03*
D194*
X010167Y019712D03*
D195*
X009794Y019721D03*
D196*
X009794Y019730D03*
D197*
X009798Y019739D03*
X009834Y020909D03*
D198*
X009803Y019748D03*
D199*
X009803Y019757D03*
D200*
X009807Y019766D03*
D201*
X009812Y019775D03*
D202*
X009812Y019784D03*
D203*
X009816Y019793D03*
X009834Y020936D03*
D204*
X009816Y019802D03*
D205*
X009816Y019811D03*
X009834Y020369D03*
D206*
X009821Y019820D03*
D207*
X009821Y019829D03*
D208*
X009821Y019838D03*
D209*
X009821Y019847D03*
D210*
X009825Y019856D03*
D211*
X009825Y019865D03*
X009834Y020405D03*
D212*
X009825Y019874D03*
D213*
X009825Y019883D03*
X009834Y020981D03*
D214*
X009825Y019892D03*
D215*
X010433Y020252D03*
D216*
X009830Y020342D03*
D217*
X009834Y020360D03*
D218*
X009834Y020378D03*
X009834Y020954D03*
D219*
X009834Y020387D03*
D220*
X009834Y020396D03*
D221*
X009834Y020414D03*
D222*
X009834Y020423D03*
D223*
X010446Y020837D03*
D224*
X009380Y020873D03*
D225*
X009830Y020882D03*
D226*
X009834Y020891D03*
D227*
X009834Y020918D03*
D228*
X009834Y020927D03*
D229*
X009834Y020945D03*
D230*
X009834Y020963D03*
D231*
X009834Y020972D03*
D232*
X014970Y018604D02*
X014970Y018527D01*
X015047Y018450D01*
X015200Y018450D01*
X015277Y018373D01*
X015277Y018297D01*
X015200Y018220D01*
X015047Y018220D01*
X014970Y018297D01*
X014970Y018604D02*
X015047Y018680D01*
X015200Y018680D01*
X015277Y018604D01*
X015430Y018680D02*
X015430Y018450D01*
X015584Y018527D01*
X015661Y018527D01*
X015737Y018450D01*
X015737Y018297D01*
X015661Y018220D01*
X015507Y018220D01*
X015430Y018297D01*
X015430Y018680D02*
X015737Y018680D01*
X013584Y017680D02*
X013584Y017220D01*
X013737Y017220D02*
X013430Y017220D01*
X013277Y017297D02*
X013277Y017604D01*
X013200Y017680D01*
X012970Y017680D01*
X012970Y017220D01*
X013200Y017220D01*
X013277Y017297D01*
X013430Y017527D02*
X013584Y017680D01*
X010987Y015604D02*
X010911Y015680D01*
X010757Y015680D01*
X010680Y015604D01*
X010527Y015680D02*
X010527Y015297D01*
X010450Y015220D01*
X010297Y015220D01*
X010220Y015297D01*
X010220Y015680D01*
X010680Y015297D02*
X010757Y015220D01*
X010911Y015220D01*
X010987Y015297D01*
X010987Y015373D01*
X010911Y015450D01*
X010834Y015450D01*
X010911Y015450D02*
X010987Y015527D01*
X010987Y015604D01*
X014873Y011430D02*
X015027Y011430D01*
X014950Y011430D02*
X014950Y011047D01*
X014873Y010970D01*
X014797Y010970D01*
X014720Y011047D01*
X015180Y010970D02*
X015487Y010970D01*
X015334Y010970D02*
X015334Y011430D01*
X015180Y011277D01*
X015257Y007180D02*
X015180Y007104D01*
X015257Y007180D02*
X015411Y007180D01*
X015487Y007104D01*
X015487Y007027D01*
X015180Y006720D01*
X015487Y006720D01*
X015027Y006797D02*
X015027Y007180D01*
X014720Y007180D02*
X014720Y006797D01*
X014797Y006720D01*
X014950Y006720D01*
X015027Y006797D01*
X022220Y006720D02*
X022527Y006720D01*
X022680Y006720D02*
X022987Y006720D01*
X022834Y006720D02*
X022834Y007180D01*
X022680Y007027D01*
X022220Y007180D02*
X022220Y006720D01*
X023220Y006720D02*
X023220Y007180D01*
X023220Y006720D02*
X023527Y006720D01*
X023680Y006720D02*
X023987Y007027D01*
X023987Y007104D01*
X023911Y007180D01*
X023757Y007180D01*
X023680Y007104D01*
X023680Y006720D02*
X023987Y006720D01*
X025521Y008907D02*
X025304Y009124D01*
X025738Y009124D01*
X025792Y009179D01*
X025792Y009287D01*
X025684Y009396D01*
X025575Y009396D01*
X025467Y009504D02*
X025467Y009613D01*
X025358Y009721D01*
X025250Y009721D01*
X025195Y009667D01*
X025195Y009559D01*
X025304Y009450D01*
X025304Y009341D01*
X025250Y009287D01*
X025141Y009287D01*
X025033Y009396D01*
X025033Y009504D01*
X023987Y010220D02*
X023680Y010220D01*
X023987Y010527D01*
X023987Y010604D01*
X023911Y010680D01*
X023757Y010680D01*
X023680Y010604D01*
X023527Y010604D02*
X023527Y010450D01*
X023450Y010373D01*
X023220Y010373D01*
X023220Y010220D02*
X023220Y010680D01*
X023450Y010680D01*
X023527Y010604D01*
X023373Y010373D02*
X023527Y010220D01*
X022987Y010220D02*
X022680Y010220D01*
X022527Y010220D02*
X022373Y010373D01*
X022450Y010373D02*
X022220Y010373D01*
X022220Y010220D02*
X022220Y010680D01*
X022450Y010680D01*
X022527Y010604D01*
X022527Y010450D01*
X022450Y010373D01*
X022680Y010527D02*
X022834Y010680D01*
X022834Y010220D01*
X023547Y013720D02*
X023700Y013720D01*
X023777Y013797D01*
X023930Y013720D02*
X024237Y013720D01*
X024084Y013720D02*
X024084Y014180D01*
X023930Y014027D01*
X023777Y014104D02*
X023700Y014180D01*
X023547Y014180D01*
X023470Y014104D01*
X023470Y013797D01*
X023547Y013720D01*
X029179Y017000D02*
X029179Y017108D01*
X029287Y017217D01*
X029396Y017217D01*
X029559Y017271D02*
X029559Y017488D01*
X029884Y017162D01*
X029776Y017054D02*
X029993Y017271D01*
X029613Y017000D02*
X029559Y017054D01*
X029450Y017054D01*
X029341Y016945D01*
X029233Y016945D01*
X029179Y017000D01*
X029396Y016783D02*
X029504Y016783D01*
X029613Y016891D01*
X029613Y017000D01*
X026237Y017970D02*
X025930Y017970D01*
X026237Y018277D01*
X026237Y018354D01*
X026161Y018430D01*
X026007Y018430D01*
X025930Y018354D01*
X025777Y018430D02*
X025623Y018430D01*
X025700Y018430D02*
X025700Y018047D01*
X025623Y017970D01*
X025547Y017970D01*
X025470Y018047D01*
X023411Y021220D02*
X023257Y021220D01*
X023180Y021297D01*
X023027Y021220D02*
X022873Y021373D01*
X022950Y021373D02*
X022720Y021373D01*
X022720Y021220D02*
X022720Y021680D01*
X022950Y021680D01*
X023027Y021604D01*
X023027Y021450D01*
X022950Y021373D01*
X023180Y021604D02*
X023257Y021680D01*
X023411Y021680D01*
X023487Y021604D01*
X023487Y021527D01*
X023411Y021450D01*
X023487Y021373D01*
X023487Y021297D01*
X023411Y021220D01*
X023411Y021450D02*
X023334Y021450D01*
X037195Y013417D02*
X037250Y013471D01*
X037358Y013471D01*
X037467Y013363D01*
X037467Y013254D01*
X037575Y013146D02*
X037684Y013146D01*
X037792Y013037D01*
X037792Y012929D01*
X037738Y012874D01*
X037629Y012874D01*
X037629Y012766D01*
X037575Y012712D01*
X037467Y012712D01*
X037358Y012820D01*
X037358Y012929D01*
X037250Y013037D02*
X037141Y013037D01*
X037033Y013146D01*
X037033Y013254D01*
X037195Y013309D02*
X037304Y013200D01*
X037304Y013091D01*
X037250Y013037D01*
X037195Y013309D02*
X037195Y013417D01*
X037575Y012929D02*
X037629Y012874D01*
X033580Y005434D02*
X033363Y005217D01*
X033363Y005542D01*
X033688Y005217D01*
X033363Y005000D02*
X033363Y004891D01*
X033254Y004783D01*
X033146Y004783D01*
X033091Y004945D02*
X033200Y005054D01*
X033309Y005054D01*
X033363Y005000D01*
X033091Y004945D02*
X032983Y004945D01*
X032929Y005000D01*
X032929Y005108D01*
X033037Y005217D01*
X033146Y005217D01*
D233*
X005750Y005700D02*
X005750Y008450D01*
X004950Y009600D02*
X004200Y009600D01*
X004200Y012800D01*
X004950Y012800D01*
X004950Y014700D02*
X006050Y014700D01*
X006050Y015700D01*
X009850Y015700D01*
X009850Y014700D01*
X010950Y014700D01*
X010950Y013100D02*
X012350Y013100D01*
X014844Y013411D02*
X016556Y013411D01*
X016556Y017989D01*
X014844Y017989D01*
X014844Y013411D01*
X014450Y010700D02*
X015950Y010700D01*
X016200Y010450D01*
X016200Y009950D01*
X015950Y009700D01*
X014450Y009700D01*
X014200Y009450D01*
X014200Y008950D01*
X014450Y008700D01*
X015950Y008700D01*
X016200Y008450D01*
X016200Y007950D01*
X015950Y007700D01*
X014450Y007700D01*
X014200Y007950D01*
X014200Y008450D01*
X014450Y008700D01*
X015950Y008700D02*
X016200Y008950D01*
X016200Y009450D01*
X015950Y009700D01*
X014450Y009700D02*
X014200Y009950D01*
X014200Y010450D01*
X014450Y010700D01*
X014068Y010450D02*
X014068Y009950D01*
X012350Y009300D02*
X010950Y009300D01*
X010150Y008450D02*
X010150Y005700D01*
X005750Y005700D01*
X007700Y011200D02*
X007702Y011231D01*
X007708Y011262D01*
X007718Y011292D01*
X007731Y011320D01*
X007748Y011347D01*
X007768Y011371D01*
X007791Y011393D01*
X007816Y011411D01*
X007844Y011426D01*
X007873Y011438D01*
X007903Y011446D01*
X007934Y011450D01*
X007966Y011450D01*
X007997Y011446D01*
X008027Y011438D01*
X008056Y011426D01*
X008084Y011411D01*
X008109Y011393D01*
X008132Y011371D01*
X008152Y011347D01*
X008169Y011320D01*
X008182Y011292D01*
X008192Y011262D01*
X008198Y011231D01*
X008200Y011200D01*
X008198Y011169D01*
X008192Y011138D01*
X008182Y011108D01*
X008169Y011080D01*
X008152Y011053D01*
X008132Y011029D01*
X008109Y011007D01*
X008084Y010989D01*
X008056Y010974D01*
X008027Y010962D01*
X007997Y010954D01*
X007966Y010950D01*
X007934Y010950D01*
X007903Y010954D01*
X007873Y010962D01*
X007844Y010974D01*
X007816Y010989D01*
X007791Y011007D01*
X007768Y011029D01*
X007748Y011053D01*
X007731Y011080D01*
X007718Y011108D01*
X007708Y011138D01*
X007702Y011169D01*
X007700Y011200D01*
X024200Y015450D02*
X024200Y015950D01*
X024450Y016200D01*
X024200Y016450D01*
X024200Y016950D01*
X024450Y017200D01*
X024200Y017450D01*
X024200Y017950D01*
X024450Y018200D01*
X024200Y018450D01*
X024200Y018950D01*
X024450Y019200D01*
X024200Y019450D01*
X024200Y019950D01*
X024450Y020200D01*
X024200Y020450D01*
X024200Y020950D01*
X024450Y021200D01*
X024950Y021200D01*
X025200Y020950D01*
X025200Y020450D01*
X024950Y020200D01*
X025200Y019950D01*
X025200Y019450D01*
X024950Y019200D01*
X025200Y018950D01*
X025200Y018450D01*
X024950Y018200D01*
X025200Y017950D01*
X025200Y017450D01*
X024950Y017200D01*
X025200Y016950D01*
X025200Y016450D01*
X024950Y016200D01*
X025200Y015950D01*
X025200Y015450D01*
X024950Y015200D01*
X024450Y015200D01*
X024200Y015450D01*
X027025Y013995D02*
X027303Y014273D01*
X027303Y014274D02*
X027332Y014300D01*
X027363Y014323D01*
X027396Y014342D01*
X027431Y014359D01*
X027468Y014372D01*
X027505Y014381D01*
X027543Y014387D01*
X027582Y014389D01*
X027621Y014387D01*
X027659Y014381D01*
X027696Y014372D01*
X027733Y014359D01*
X027768Y014342D01*
X027801Y014323D01*
X027832Y014300D01*
X027861Y014274D01*
X027860Y014273D02*
X030644Y011489D01*
X030645Y011490D02*
X030671Y011461D01*
X030694Y011430D01*
X030713Y011397D01*
X030730Y011362D01*
X030743Y011325D01*
X030752Y011288D01*
X030758Y011250D01*
X030760Y011211D01*
X030758Y011172D01*
X030752Y011134D01*
X030743Y011097D01*
X030730Y011060D01*
X030713Y011025D01*
X030694Y010992D01*
X030671Y010961D01*
X030645Y010932D01*
X030644Y010933D02*
X030366Y010654D01*
X031192Y010384D02*
X028408Y007600D01*
X028408Y007601D02*
X028382Y007572D01*
X028359Y007541D01*
X028340Y007508D01*
X028323Y007473D01*
X028310Y007436D01*
X028301Y007399D01*
X028295Y007361D01*
X028293Y007322D01*
X028295Y007283D01*
X028301Y007245D01*
X028310Y007208D01*
X028323Y007171D01*
X028340Y007136D01*
X028359Y007103D01*
X028382Y007072D01*
X028408Y007043D01*
X028687Y006765D01*
X029522Y005930D02*
X030079Y005373D01*
X030914Y004538D02*
X031192Y004260D01*
X031192Y004259D02*
X031221Y004233D01*
X031252Y004210D01*
X031285Y004191D01*
X031320Y004174D01*
X031357Y004161D01*
X031394Y004152D01*
X031432Y004146D01*
X031471Y004144D01*
X031510Y004146D01*
X031548Y004152D01*
X031585Y004161D01*
X031622Y004174D01*
X031657Y004191D01*
X031690Y004210D01*
X031721Y004233D01*
X031750Y004259D01*
X031749Y004260D02*
X034533Y007043D01*
X034534Y007043D02*
X034560Y007072D01*
X034583Y007103D01*
X034602Y007136D01*
X034619Y007171D01*
X034632Y007208D01*
X034641Y007245D01*
X034647Y007283D01*
X034649Y007322D01*
X034647Y007361D01*
X034641Y007399D01*
X034632Y007436D01*
X034619Y007473D01*
X034602Y007508D01*
X034583Y007541D01*
X034560Y007572D01*
X034534Y007601D01*
X034533Y007600D02*
X034255Y007879D01*
X035081Y008149D02*
X032298Y010933D01*
X032297Y010932D02*
X032271Y010961D01*
X032248Y010992D01*
X032229Y011025D01*
X032212Y011060D01*
X032199Y011097D01*
X032190Y011134D01*
X032184Y011172D01*
X032182Y011211D01*
X032184Y011250D01*
X032190Y011288D01*
X032199Y011325D01*
X032212Y011362D01*
X032229Y011397D01*
X032248Y011430D01*
X032271Y011461D01*
X032297Y011490D01*
X032298Y011489D02*
X032576Y011768D01*
X031749Y012038D02*
X034533Y014822D01*
X034534Y014821D02*
X034560Y014850D01*
X034583Y014881D01*
X034602Y014914D01*
X034619Y014949D01*
X034632Y014986D01*
X034641Y015023D01*
X034647Y015061D01*
X034649Y015100D01*
X034647Y015139D01*
X034641Y015177D01*
X034632Y015214D01*
X034619Y015251D01*
X034602Y015286D01*
X034583Y015319D01*
X034560Y015350D01*
X034534Y015379D01*
X034533Y015378D02*
X034255Y015657D01*
X033419Y016492D02*
X032863Y017049D01*
X032027Y017884D02*
X031749Y018162D01*
X031192Y018162D02*
X028408Y015378D01*
X028408Y015379D02*
X028382Y015350D01*
X028359Y015319D01*
X028340Y015286D01*
X028323Y015251D01*
X028310Y015214D01*
X028301Y015177D01*
X028295Y015139D01*
X028293Y015100D01*
X028295Y015061D01*
X028301Y015023D01*
X028310Y014986D01*
X028323Y014949D01*
X028340Y014914D01*
X028359Y014881D01*
X028382Y014850D01*
X028408Y014821D01*
X028408Y014822D02*
X028687Y014543D01*
X029522Y013708D02*
X030079Y013151D01*
X030914Y012316D02*
X031192Y012038D01*
X031192Y012037D02*
X031221Y012011D01*
X031252Y011988D01*
X031285Y011969D01*
X031320Y011952D01*
X031357Y011939D01*
X031394Y011930D01*
X031432Y011924D01*
X031471Y011922D01*
X031510Y011924D01*
X031548Y011930D01*
X031585Y011939D01*
X031622Y011952D01*
X031657Y011969D01*
X031690Y011988D01*
X031721Y012011D01*
X031750Y012037D01*
X033411Y012603D02*
X033968Y013160D01*
X034803Y013995D02*
X035081Y014273D01*
X035081Y014274D02*
X035110Y014300D01*
X035141Y014323D01*
X035174Y014342D01*
X035209Y014359D01*
X035246Y014372D01*
X035283Y014381D01*
X035321Y014387D01*
X035360Y014389D01*
X035399Y014387D01*
X035437Y014381D01*
X035474Y014372D01*
X035511Y014359D01*
X035546Y014342D01*
X035579Y014323D01*
X035610Y014300D01*
X035639Y014274D01*
X035638Y014273D02*
X038422Y011489D01*
X038423Y011490D02*
X038449Y011461D01*
X038472Y011430D01*
X038491Y011397D01*
X038508Y011362D01*
X038521Y011325D01*
X038530Y011288D01*
X038536Y011250D01*
X038538Y011211D01*
X038536Y011172D01*
X038530Y011134D01*
X038521Y011097D01*
X038508Y011060D01*
X038491Y011025D01*
X038472Y010992D01*
X038449Y010961D01*
X038423Y010932D01*
X038422Y010933D02*
X038144Y010654D01*
X037309Y009819D02*
X036752Y009262D01*
X035917Y008427D02*
X035638Y008149D01*
X035639Y008148D02*
X035610Y008122D01*
X035579Y008099D01*
X035546Y008080D01*
X035511Y008063D01*
X035474Y008050D01*
X035437Y008041D01*
X035399Y008035D01*
X035360Y008033D01*
X035321Y008035D01*
X035283Y008041D01*
X035246Y008050D01*
X035209Y008063D01*
X035174Y008080D01*
X035141Y008099D01*
X035110Y008122D01*
X035081Y008148D01*
X033419Y008714D02*
X032863Y009271D01*
X032027Y010106D02*
X031749Y010384D01*
X031750Y010385D02*
X031721Y010411D01*
X031690Y010434D01*
X031657Y010453D01*
X031622Y010470D01*
X031585Y010483D01*
X031548Y010492D01*
X031510Y010498D01*
X031471Y010500D01*
X031432Y010498D01*
X031394Y010492D01*
X031357Y010483D01*
X031320Y010470D01*
X031285Y010453D01*
X031252Y010434D01*
X031221Y010411D01*
X031192Y010385D01*
X029530Y009819D02*
X028974Y009262D01*
X028138Y008427D02*
X027860Y008149D01*
X027861Y008148D02*
X027832Y008122D01*
X027801Y008099D01*
X027768Y008080D01*
X027733Y008063D01*
X027696Y008050D01*
X027659Y008041D01*
X027621Y008035D01*
X027582Y008033D01*
X027543Y008035D01*
X027505Y008041D01*
X027468Y008050D01*
X027431Y008063D01*
X027396Y008080D01*
X027363Y008099D01*
X027332Y008122D01*
X027303Y008148D01*
X027303Y008149D02*
X024519Y010933D01*
X024519Y010932D02*
X024493Y010961D01*
X024470Y010992D01*
X024451Y011025D01*
X024434Y011060D01*
X024421Y011097D01*
X024412Y011134D01*
X024406Y011172D01*
X024404Y011211D01*
X024406Y011250D01*
X024412Y011288D01*
X024421Y011325D01*
X024434Y011362D01*
X024451Y011397D01*
X024470Y011430D01*
X024493Y011461D01*
X024519Y011490D01*
X024519Y011489D02*
X024798Y011768D01*
X025633Y012603D02*
X026190Y013160D01*
X026204Y011211D02*
X026206Y011285D01*
X026212Y011359D01*
X026222Y011432D01*
X026236Y011505D01*
X026253Y011577D01*
X026275Y011647D01*
X026300Y011717D01*
X026329Y011785D01*
X026362Y011851D01*
X026398Y011916D01*
X026438Y011978D01*
X026480Y012039D01*
X026526Y012097D01*
X026575Y012152D01*
X026627Y012205D01*
X026682Y012255D01*
X026739Y012301D01*
X026799Y012345D01*
X026861Y012385D01*
X026925Y012422D01*
X026991Y012456D01*
X027059Y012486D01*
X027128Y012512D01*
X027199Y012535D01*
X027270Y012553D01*
X027343Y012568D01*
X027416Y012579D01*
X027490Y012586D01*
X027564Y012589D01*
X027637Y012588D01*
X027711Y012583D01*
X027785Y012574D01*
X027858Y012561D01*
X027930Y012544D01*
X028001Y012524D01*
X028071Y012499D01*
X028139Y012471D01*
X028206Y012440D01*
X028271Y012404D01*
X028334Y012366D01*
X028395Y012324D01*
X028454Y012278D01*
X028510Y012230D01*
X028563Y012179D01*
X028613Y012125D01*
X028661Y012068D01*
X028705Y012009D01*
X028747Y011947D01*
X028785Y011884D01*
X028819Y011818D01*
X028850Y011751D01*
X028877Y011682D01*
X028900Y011612D01*
X028920Y011541D01*
X028936Y011468D01*
X028948Y011395D01*
X028956Y011322D01*
X028960Y011248D01*
X028960Y011174D01*
X028956Y011100D01*
X028948Y011027D01*
X028936Y010954D01*
X028920Y010881D01*
X028900Y010810D01*
X028877Y010740D01*
X028850Y010671D01*
X028819Y010604D01*
X028785Y010538D01*
X028747Y010475D01*
X028705Y010413D01*
X028661Y010354D01*
X028613Y010297D01*
X028563Y010243D01*
X028510Y010192D01*
X028454Y010144D01*
X028395Y010098D01*
X028334Y010056D01*
X028271Y010018D01*
X028206Y009982D01*
X028139Y009951D01*
X028071Y009923D01*
X028001Y009898D01*
X027930Y009878D01*
X027858Y009861D01*
X027785Y009848D01*
X027711Y009839D01*
X027637Y009834D01*
X027564Y009833D01*
X027490Y009836D01*
X027416Y009843D01*
X027343Y009854D01*
X027270Y009869D01*
X027199Y009887D01*
X027128Y009910D01*
X027059Y009936D01*
X026991Y009966D01*
X026925Y010000D01*
X026861Y010037D01*
X026799Y010077D01*
X026739Y010121D01*
X026682Y010167D01*
X026627Y010217D01*
X026575Y010270D01*
X026526Y010325D01*
X026480Y010383D01*
X026438Y010444D01*
X026398Y010506D01*
X026362Y010571D01*
X026329Y010637D01*
X026300Y010705D01*
X026275Y010775D01*
X026253Y010845D01*
X026236Y010917D01*
X026222Y010990D01*
X026212Y011063D01*
X026206Y011137D01*
X026204Y011211D01*
X030093Y015100D02*
X030095Y015174D01*
X030101Y015248D01*
X030111Y015321D01*
X030125Y015394D01*
X030142Y015466D01*
X030164Y015536D01*
X030189Y015606D01*
X030218Y015674D01*
X030251Y015740D01*
X030287Y015805D01*
X030327Y015867D01*
X030369Y015928D01*
X030415Y015986D01*
X030464Y016041D01*
X030516Y016094D01*
X030571Y016144D01*
X030628Y016190D01*
X030688Y016234D01*
X030750Y016274D01*
X030814Y016311D01*
X030880Y016345D01*
X030948Y016375D01*
X031017Y016401D01*
X031088Y016424D01*
X031159Y016442D01*
X031232Y016457D01*
X031305Y016468D01*
X031379Y016475D01*
X031453Y016478D01*
X031526Y016477D01*
X031600Y016472D01*
X031674Y016463D01*
X031747Y016450D01*
X031819Y016433D01*
X031890Y016413D01*
X031960Y016388D01*
X032028Y016360D01*
X032095Y016329D01*
X032160Y016293D01*
X032223Y016255D01*
X032284Y016213D01*
X032343Y016167D01*
X032399Y016119D01*
X032452Y016068D01*
X032502Y016014D01*
X032550Y015957D01*
X032594Y015898D01*
X032636Y015836D01*
X032674Y015773D01*
X032708Y015707D01*
X032739Y015640D01*
X032766Y015571D01*
X032789Y015501D01*
X032809Y015430D01*
X032825Y015357D01*
X032837Y015284D01*
X032845Y015211D01*
X032849Y015137D01*
X032849Y015063D01*
X032845Y014989D01*
X032837Y014916D01*
X032825Y014843D01*
X032809Y014770D01*
X032789Y014699D01*
X032766Y014629D01*
X032739Y014560D01*
X032708Y014493D01*
X032674Y014427D01*
X032636Y014364D01*
X032594Y014302D01*
X032550Y014243D01*
X032502Y014186D01*
X032452Y014132D01*
X032399Y014081D01*
X032343Y014033D01*
X032284Y013987D01*
X032223Y013945D01*
X032160Y013907D01*
X032095Y013871D01*
X032028Y013840D01*
X031960Y013812D01*
X031890Y013787D01*
X031819Y013767D01*
X031747Y013750D01*
X031674Y013737D01*
X031600Y013728D01*
X031526Y013723D01*
X031453Y013722D01*
X031379Y013725D01*
X031305Y013732D01*
X031232Y013743D01*
X031159Y013758D01*
X031088Y013776D01*
X031017Y013799D01*
X030948Y013825D01*
X030880Y013855D01*
X030814Y013889D01*
X030750Y013926D01*
X030688Y013966D01*
X030628Y014010D01*
X030571Y014056D01*
X030516Y014106D01*
X030464Y014159D01*
X030415Y014214D01*
X030369Y014272D01*
X030327Y014333D01*
X030287Y014395D01*
X030251Y014460D01*
X030218Y014526D01*
X030189Y014594D01*
X030164Y014664D01*
X030142Y014734D01*
X030125Y014806D01*
X030111Y014879D01*
X030101Y014952D01*
X030095Y015026D01*
X030093Y015100D01*
X031192Y018163D02*
X031221Y018189D01*
X031252Y018212D01*
X031285Y018231D01*
X031320Y018248D01*
X031357Y018261D01*
X031394Y018270D01*
X031432Y018276D01*
X031471Y018278D01*
X031510Y018276D01*
X031548Y018270D01*
X031585Y018261D01*
X031622Y018248D01*
X031657Y018231D01*
X031690Y018212D01*
X031721Y018189D01*
X031750Y018163D01*
X033982Y011211D02*
X033984Y011285D01*
X033990Y011359D01*
X034000Y011432D01*
X034014Y011505D01*
X034031Y011577D01*
X034053Y011647D01*
X034078Y011717D01*
X034107Y011785D01*
X034140Y011851D01*
X034176Y011916D01*
X034216Y011978D01*
X034258Y012039D01*
X034304Y012097D01*
X034353Y012152D01*
X034405Y012205D01*
X034460Y012255D01*
X034517Y012301D01*
X034577Y012345D01*
X034639Y012385D01*
X034703Y012422D01*
X034769Y012456D01*
X034837Y012486D01*
X034906Y012512D01*
X034977Y012535D01*
X035048Y012553D01*
X035121Y012568D01*
X035194Y012579D01*
X035268Y012586D01*
X035342Y012589D01*
X035415Y012588D01*
X035489Y012583D01*
X035563Y012574D01*
X035636Y012561D01*
X035708Y012544D01*
X035779Y012524D01*
X035849Y012499D01*
X035917Y012471D01*
X035984Y012440D01*
X036049Y012404D01*
X036112Y012366D01*
X036173Y012324D01*
X036232Y012278D01*
X036288Y012230D01*
X036341Y012179D01*
X036391Y012125D01*
X036439Y012068D01*
X036483Y012009D01*
X036525Y011947D01*
X036563Y011884D01*
X036597Y011818D01*
X036628Y011751D01*
X036655Y011682D01*
X036678Y011612D01*
X036698Y011541D01*
X036714Y011468D01*
X036726Y011395D01*
X036734Y011322D01*
X036738Y011248D01*
X036738Y011174D01*
X036734Y011100D01*
X036726Y011027D01*
X036714Y010954D01*
X036698Y010881D01*
X036678Y010810D01*
X036655Y010740D01*
X036628Y010671D01*
X036597Y010604D01*
X036563Y010538D01*
X036525Y010475D01*
X036483Y010413D01*
X036439Y010354D01*
X036391Y010297D01*
X036341Y010243D01*
X036288Y010192D01*
X036232Y010144D01*
X036173Y010098D01*
X036112Y010056D01*
X036049Y010018D01*
X035984Y009982D01*
X035917Y009951D01*
X035849Y009923D01*
X035779Y009898D01*
X035708Y009878D01*
X035636Y009861D01*
X035563Y009848D01*
X035489Y009839D01*
X035415Y009834D01*
X035342Y009833D01*
X035268Y009836D01*
X035194Y009843D01*
X035121Y009854D01*
X035048Y009869D01*
X034977Y009887D01*
X034906Y009910D01*
X034837Y009936D01*
X034769Y009966D01*
X034703Y010000D01*
X034639Y010037D01*
X034577Y010077D01*
X034517Y010121D01*
X034460Y010167D01*
X034405Y010217D01*
X034353Y010270D01*
X034304Y010325D01*
X034258Y010383D01*
X034216Y010444D01*
X034176Y010506D01*
X034140Y010571D01*
X034107Y010637D01*
X034078Y010705D01*
X034053Y010775D01*
X034031Y010845D01*
X034014Y010917D01*
X034000Y010990D01*
X033990Y011063D01*
X033984Y011137D01*
X033982Y011211D01*
X030093Y007322D02*
X030095Y007396D01*
X030101Y007470D01*
X030111Y007543D01*
X030125Y007616D01*
X030142Y007688D01*
X030164Y007758D01*
X030189Y007828D01*
X030218Y007896D01*
X030251Y007962D01*
X030287Y008027D01*
X030327Y008089D01*
X030369Y008150D01*
X030415Y008208D01*
X030464Y008263D01*
X030516Y008316D01*
X030571Y008366D01*
X030628Y008412D01*
X030688Y008456D01*
X030750Y008496D01*
X030814Y008533D01*
X030880Y008567D01*
X030948Y008597D01*
X031017Y008623D01*
X031088Y008646D01*
X031159Y008664D01*
X031232Y008679D01*
X031305Y008690D01*
X031379Y008697D01*
X031453Y008700D01*
X031526Y008699D01*
X031600Y008694D01*
X031674Y008685D01*
X031747Y008672D01*
X031819Y008655D01*
X031890Y008635D01*
X031960Y008610D01*
X032028Y008582D01*
X032095Y008551D01*
X032160Y008515D01*
X032223Y008477D01*
X032284Y008435D01*
X032343Y008389D01*
X032399Y008341D01*
X032452Y008290D01*
X032502Y008236D01*
X032550Y008179D01*
X032594Y008120D01*
X032636Y008058D01*
X032674Y007995D01*
X032708Y007929D01*
X032739Y007862D01*
X032766Y007793D01*
X032789Y007723D01*
X032809Y007652D01*
X032825Y007579D01*
X032837Y007506D01*
X032845Y007433D01*
X032849Y007359D01*
X032849Y007285D01*
X032845Y007211D01*
X032837Y007138D01*
X032825Y007065D01*
X032809Y006992D01*
X032789Y006921D01*
X032766Y006851D01*
X032739Y006782D01*
X032708Y006715D01*
X032674Y006649D01*
X032636Y006586D01*
X032594Y006524D01*
X032550Y006465D01*
X032502Y006408D01*
X032452Y006354D01*
X032399Y006303D01*
X032343Y006255D01*
X032284Y006209D01*
X032223Y006167D01*
X032160Y006129D01*
X032095Y006093D01*
X032028Y006062D01*
X031960Y006034D01*
X031890Y006009D01*
X031819Y005989D01*
X031747Y005972D01*
X031674Y005959D01*
X031600Y005950D01*
X031526Y005945D01*
X031453Y005944D01*
X031379Y005947D01*
X031305Y005954D01*
X031232Y005965D01*
X031159Y005980D01*
X031088Y005998D01*
X031017Y006021D01*
X030948Y006047D01*
X030880Y006077D01*
X030814Y006111D01*
X030750Y006148D01*
X030688Y006188D01*
X030628Y006232D01*
X030571Y006278D01*
X030516Y006328D01*
X030464Y006381D01*
X030415Y006436D01*
X030369Y006494D01*
X030327Y006555D01*
X030287Y006617D01*
X030251Y006682D01*
X030218Y006748D01*
X030189Y006816D01*
X030164Y006886D01*
X030142Y006956D01*
X030125Y007028D01*
X030111Y007101D01*
X030101Y007174D01*
X030095Y007248D01*
X030093Y007322D01*
D234*
X016200Y005950D02*
X016200Y005450D01*
X015950Y005200D01*
X016200Y004950D01*
X016200Y004450D01*
X015950Y004200D01*
X016200Y003950D01*
X016200Y003450D01*
X015950Y003200D01*
X016200Y002950D01*
X016200Y002450D01*
X015950Y002200D01*
X014450Y002200D01*
X014200Y002450D01*
X014200Y002950D01*
X014450Y003200D01*
X014200Y003450D01*
X014200Y003950D01*
X014450Y004200D01*
X014200Y004450D01*
X014200Y004950D01*
X014450Y005200D01*
X014200Y005450D01*
X014200Y005950D01*
X014450Y006200D01*
X015950Y006200D01*
X016200Y005950D01*
D235*
X013950Y006450D02*
X025200Y006450D01*
X025200Y000450D01*
X013950Y000450D01*
X013950Y006450D01*
X013500Y016400D02*
X012900Y016400D01*
X013200Y016500D01*
X013500Y016400D01*
D236*
X024958Y011211D02*
X024960Y011232D01*
X024966Y011252D01*
X024975Y011272D01*
X024987Y011289D01*
X025002Y011303D01*
X025020Y011315D01*
X025040Y011323D01*
X025060Y011328D01*
X025081Y011329D01*
X025102Y011326D01*
X025122Y011320D01*
X025141Y011309D01*
X025158Y011296D01*
X025171Y011280D01*
X025182Y011262D01*
X025190Y011242D01*
X025194Y011222D01*
X025194Y011200D01*
X025190Y011180D01*
X025182Y011160D01*
X025171Y011142D01*
X025158Y011126D01*
X025141Y011113D01*
X025122Y011102D01*
X025102Y011096D01*
X025081Y011093D01*
X025060Y011094D01*
X025040Y011099D01*
X025020Y011107D01*
X025002Y011119D01*
X024987Y011133D01*
X024975Y011150D01*
X024966Y011170D01*
X024960Y011190D01*
X024958Y011211D01*
X027464Y013716D02*
X027466Y013737D01*
X027472Y013757D01*
X027481Y013777D01*
X027493Y013794D01*
X027508Y013808D01*
X027526Y013820D01*
X027546Y013828D01*
X027566Y013833D01*
X027587Y013834D01*
X027608Y013831D01*
X027628Y013825D01*
X027647Y013814D01*
X027664Y013801D01*
X027677Y013785D01*
X027688Y013767D01*
X027696Y013747D01*
X027700Y013727D01*
X027700Y013705D01*
X027696Y013685D01*
X027688Y013665D01*
X027677Y013647D01*
X027664Y013631D01*
X027647Y013618D01*
X027628Y013607D01*
X027608Y013601D01*
X027587Y013598D01*
X027566Y013599D01*
X027546Y013604D01*
X027526Y013612D01*
X027508Y013624D01*
X027493Y013638D01*
X027481Y013655D01*
X027472Y013675D01*
X027466Y013695D01*
X027464Y013716D01*
X028847Y015100D02*
X028849Y015121D01*
X028855Y015141D01*
X028864Y015161D01*
X028876Y015178D01*
X028891Y015192D01*
X028909Y015204D01*
X028929Y015212D01*
X028949Y015217D01*
X028970Y015218D01*
X028991Y015215D01*
X029011Y015209D01*
X029030Y015198D01*
X029047Y015185D01*
X029060Y015169D01*
X029071Y015151D01*
X029079Y015131D01*
X029083Y015111D01*
X029083Y015089D01*
X029079Y015069D01*
X029071Y015049D01*
X029060Y015031D01*
X029047Y015015D01*
X029030Y015002D01*
X029011Y014991D01*
X028991Y014985D01*
X028970Y014982D01*
X028949Y014983D01*
X028929Y014988D01*
X028909Y014996D01*
X028891Y015008D01*
X028876Y015022D01*
X028864Y015039D01*
X028855Y015059D01*
X028849Y015079D01*
X028847Y015100D01*
X031353Y017605D02*
X031355Y017626D01*
X031361Y017646D01*
X031370Y017666D01*
X031382Y017683D01*
X031397Y017697D01*
X031415Y017709D01*
X031435Y017717D01*
X031455Y017722D01*
X031476Y017723D01*
X031497Y017720D01*
X031517Y017714D01*
X031536Y017703D01*
X031553Y017690D01*
X031566Y017674D01*
X031577Y017656D01*
X031585Y017636D01*
X031589Y017616D01*
X031589Y017594D01*
X031585Y017574D01*
X031577Y017554D01*
X031566Y017536D01*
X031553Y017520D01*
X031536Y017507D01*
X031517Y017496D01*
X031497Y017490D01*
X031476Y017487D01*
X031455Y017488D01*
X031435Y017493D01*
X031415Y017501D01*
X031397Y017513D01*
X031382Y017527D01*
X031370Y017544D01*
X031361Y017564D01*
X031355Y017584D01*
X031353Y017605D01*
X033858Y015100D02*
X033860Y015121D01*
X033866Y015141D01*
X033875Y015161D01*
X033887Y015178D01*
X033902Y015192D01*
X033920Y015204D01*
X033940Y015212D01*
X033960Y015217D01*
X033981Y015218D01*
X034002Y015215D01*
X034022Y015209D01*
X034041Y015198D01*
X034058Y015185D01*
X034071Y015169D01*
X034082Y015151D01*
X034090Y015131D01*
X034094Y015111D01*
X034094Y015089D01*
X034090Y015069D01*
X034082Y015049D01*
X034071Y015031D01*
X034058Y015015D01*
X034041Y015002D01*
X034022Y014991D01*
X034002Y014985D01*
X033981Y014982D01*
X033960Y014983D01*
X033940Y014988D01*
X033920Y014996D01*
X033902Y015008D01*
X033887Y015022D01*
X033875Y015039D01*
X033866Y015059D01*
X033860Y015079D01*
X033858Y015100D01*
X035242Y013716D02*
X035244Y013737D01*
X035250Y013757D01*
X035259Y013777D01*
X035271Y013794D01*
X035286Y013808D01*
X035304Y013820D01*
X035324Y013828D01*
X035344Y013833D01*
X035365Y013834D01*
X035386Y013831D01*
X035406Y013825D01*
X035425Y013814D01*
X035442Y013801D01*
X035455Y013785D01*
X035466Y013767D01*
X035474Y013747D01*
X035478Y013727D01*
X035478Y013705D01*
X035474Y013685D01*
X035466Y013665D01*
X035455Y013647D01*
X035442Y013631D01*
X035425Y013618D01*
X035406Y013607D01*
X035386Y013601D01*
X035365Y013598D01*
X035344Y013599D01*
X035324Y013604D01*
X035304Y013612D01*
X035286Y013624D01*
X035271Y013638D01*
X035259Y013655D01*
X035250Y013675D01*
X035244Y013695D01*
X035242Y013716D01*
X031353Y012595D02*
X031355Y012616D01*
X031361Y012636D01*
X031370Y012656D01*
X031382Y012673D01*
X031397Y012687D01*
X031415Y012699D01*
X031435Y012707D01*
X031455Y012712D01*
X031476Y012713D01*
X031497Y012710D01*
X031517Y012704D01*
X031536Y012693D01*
X031553Y012680D01*
X031566Y012664D01*
X031577Y012646D01*
X031585Y012626D01*
X031589Y012606D01*
X031589Y012584D01*
X031585Y012564D01*
X031577Y012544D01*
X031566Y012526D01*
X031553Y012510D01*
X031536Y012497D01*
X031517Y012486D01*
X031497Y012480D01*
X031476Y012477D01*
X031455Y012478D01*
X031435Y012483D01*
X031415Y012491D01*
X031397Y012503D01*
X031382Y012517D01*
X031370Y012534D01*
X031361Y012554D01*
X031355Y012574D01*
X031353Y012595D01*
X029969Y011211D02*
X029971Y011232D01*
X029977Y011252D01*
X029986Y011272D01*
X029998Y011289D01*
X030013Y011303D01*
X030031Y011315D01*
X030051Y011323D01*
X030071Y011328D01*
X030092Y011329D01*
X030113Y011326D01*
X030133Y011320D01*
X030152Y011309D01*
X030169Y011296D01*
X030182Y011280D01*
X030193Y011262D01*
X030201Y011242D01*
X030205Y011222D01*
X030205Y011200D01*
X030201Y011180D01*
X030193Y011160D01*
X030182Y011142D01*
X030169Y011126D01*
X030152Y011113D01*
X030133Y011102D01*
X030113Y011096D01*
X030092Y011093D01*
X030071Y011094D01*
X030051Y011099D01*
X030031Y011107D01*
X030013Y011119D01*
X029998Y011133D01*
X029986Y011150D01*
X029977Y011170D01*
X029971Y011190D01*
X029969Y011211D01*
X031353Y009827D02*
X031355Y009848D01*
X031361Y009868D01*
X031370Y009888D01*
X031382Y009905D01*
X031397Y009919D01*
X031415Y009931D01*
X031435Y009939D01*
X031455Y009944D01*
X031476Y009945D01*
X031497Y009942D01*
X031517Y009936D01*
X031536Y009925D01*
X031553Y009912D01*
X031566Y009896D01*
X031577Y009878D01*
X031585Y009858D01*
X031589Y009838D01*
X031589Y009816D01*
X031585Y009796D01*
X031577Y009776D01*
X031566Y009758D01*
X031553Y009742D01*
X031536Y009729D01*
X031517Y009718D01*
X031497Y009712D01*
X031476Y009709D01*
X031455Y009710D01*
X031435Y009715D01*
X031415Y009723D01*
X031397Y009735D01*
X031382Y009749D01*
X031370Y009766D01*
X031361Y009786D01*
X031355Y009806D01*
X031353Y009827D01*
X032736Y011211D02*
X032738Y011232D01*
X032744Y011252D01*
X032753Y011272D01*
X032765Y011289D01*
X032780Y011303D01*
X032798Y011315D01*
X032818Y011323D01*
X032838Y011328D01*
X032859Y011329D01*
X032880Y011326D01*
X032900Y011320D01*
X032919Y011309D01*
X032936Y011296D01*
X032949Y011280D01*
X032960Y011262D01*
X032968Y011242D01*
X032972Y011222D01*
X032972Y011200D01*
X032968Y011180D01*
X032960Y011160D01*
X032949Y011142D01*
X032936Y011126D01*
X032919Y011113D01*
X032900Y011102D01*
X032880Y011096D01*
X032859Y011093D01*
X032838Y011094D01*
X032818Y011099D01*
X032798Y011107D01*
X032780Y011119D01*
X032765Y011133D01*
X032753Y011150D01*
X032744Y011170D01*
X032738Y011190D01*
X032736Y011211D01*
X035242Y008705D02*
X035244Y008726D01*
X035250Y008746D01*
X035259Y008766D01*
X035271Y008783D01*
X035286Y008797D01*
X035304Y008809D01*
X035324Y008817D01*
X035344Y008822D01*
X035365Y008823D01*
X035386Y008820D01*
X035406Y008814D01*
X035425Y008803D01*
X035442Y008790D01*
X035455Y008774D01*
X035466Y008756D01*
X035474Y008736D01*
X035478Y008716D01*
X035478Y008694D01*
X035474Y008674D01*
X035466Y008654D01*
X035455Y008636D01*
X035442Y008620D01*
X035425Y008607D01*
X035406Y008596D01*
X035386Y008590D01*
X035365Y008587D01*
X035344Y008588D01*
X035324Y008593D01*
X035304Y008601D01*
X035286Y008613D01*
X035271Y008627D01*
X035259Y008644D01*
X035250Y008664D01*
X035244Y008684D01*
X035242Y008705D01*
X033858Y007322D02*
X033860Y007343D01*
X033866Y007363D01*
X033875Y007383D01*
X033887Y007400D01*
X033902Y007414D01*
X033920Y007426D01*
X033940Y007434D01*
X033960Y007439D01*
X033981Y007440D01*
X034002Y007437D01*
X034022Y007431D01*
X034041Y007420D01*
X034058Y007407D01*
X034071Y007391D01*
X034082Y007373D01*
X034090Y007353D01*
X034094Y007333D01*
X034094Y007311D01*
X034090Y007291D01*
X034082Y007271D01*
X034071Y007253D01*
X034058Y007237D01*
X034041Y007224D01*
X034022Y007213D01*
X034002Y007207D01*
X033981Y007204D01*
X033960Y007205D01*
X033940Y007210D01*
X033920Y007218D01*
X033902Y007230D01*
X033887Y007244D01*
X033875Y007261D01*
X033866Y007281D01*
X033860Y007301D01*
X033858Y007322D01*
X031353Y004816D02*
X031355Y004837D01*
X031361Y004857D01*
X031370Y004877D01*
X031382Y004894D01*
X031397Y004908D01*
X031415Y004920D01*
X031435Y004928D01*
X031455Y004933D01*
X031476Y004934D01*
X031497Y004931D01*
X031517Y004925D01*
X031536Y004914D01*
X031553Y004901D01*
X031566Y004885D01*
X031577Y004867D01*
X031585Y004847D01*
X031589Y004827D01*
X031589Y004805D01*
X031585Y004785D01*
X031577Y004765D01*
X031566Y004747D01*
X031553Y004731D01*
X031536Y004718D01*
X031517Y004707D01*
X031497Y004701D01*
X031476Y004698D01*
X031455Y004699D01*
X031435Y004704D01*
X031415Y004712D01*
X031397Y004724D01*
X031382Y004738D01*
X031370Y004755D01*
X031361Y004775D01*
X031355Y004795D01*
X031353Y004816D01*
X028847Y007322D02*
X028849Y007343D01*
X028855Y007363D01*
X028864Y007383D01*
X028876Y007400D01*
X028891Y007414D01*
X028909Y007426D01*
X028929Y007434D01*
X028949Y007439D01*
X028970Y007440D01*
X028991Y007437D01*
X029011Y007431D01*
X029030Y007420D01*
X029047Y007407D01*
X029060Y007391D01*
X029071Y007373D01*
X029079Y007353D01*
X029083Y007333D01*
X029083Y007311D01*
X029079Y007291D01*
X029071Y007271D01*
X029060Y007253D01*
X029047Y007237D01*
X029030Y007224D01*
X029011Y007213D01*
X028991Y007207D01*
X028970Y007204D01*
X028949Y007205D01*
X028929Y007210D01*
X028909Y007218D01*
X028891Y007230D01*
X028876Y007244D01*
X028864Y007261D01*
X028855Y007281D01*
X028849Y007301D01*
X028847Y007322D01*
X027464Y008705D02*
X027466Y008726D01*
X027472Y008746D01*
X027481Y008766D01*
X027493Y008783D01*
X027508Y008797D01*
X027526Y008809D01*
X027546Y008817D01*
X027566Y008822D01*
X027587Y008823D01*
X027608Y008820D01*
X027628Y008814D01*
X027647Y008803D01*
X027664Y008790D01*
X027677Y008774D01*
X027688Y008756D01*
X027696Y008736D01*
X027700Y008716D01*
X027700Y008694D01*
X027696Y008674D01*
X027688Y008654D01*
X027677Y008636D01*
X027664Y008620D01*
X027647Y008607D01*
X027628Y008596D01*
X027608Y008590D01*
X027587Y008587D01*
X027566Y008588D01*
X027546Y008593D01*
X027526Y008601D01*
X027508Y008613D01*
X027493Y008627D01*
X027481Y008644D01*
X027472Y008664D01*
X027466Y008684D01*
X027464Y008705D01*
X037747Y011211D02*
X037749Y011232D01*
X037755Y011252D01*
X037764Y011272D01*
X037776Y011289D01*
X037791Y011303D01*
X037809Y011315D01*
X037829Y011323D01*
X037849Y011328D01*
X037870Y011329D01*
X037891Y011326D01*
X037911Y011320D01*
X037930Y011309D01*
X037947Y011296D01*
X037960Y011280D01*
X037971Y011262D01*
X037979Y011242D01*
X037983Y011222D01*
X037983Y011200D01*
X037979Y011180D01*
X037971Y011160D01*
X037960Y011142D01*
X037947Y011126D01*
X037930Y011113D01*
X037911Y011102D01*
X037891Y011096D01*
X037870Y011093D01*
X037849Y011094D01*
X037829Y011099D01*
X037809Y011107D01*
X037791Y011119D01*
X037776Y011133D01*
X037764Y011150D01*
X037755Y011170D01*
X037749Y011190D01*
X037747Y011211D01*
D237*
X023450Y007999D03*
X022450Y007999D03*
M02*
